<svg xmlns="http://www.w3.org/2000/svg" viewBox="0 0 41.12 37.45"><defs><style>.cls-1{fill:#8cc542;}</style></defs><g id="Layer_2" data-name="Layer 2"><g id="Layer_1-2" data-name="Layer 1"><path class="cls-1" d="M20.56,2.6a.39.39,0,0,0-.17,0L4.66,8.92a.7.7,0,0,0-.28.41v5.81a.43.43,0,0,0,.44.44h31.5a.44.44,0,0,0,.44-.44V9.33a.64.64,0,0,0-.28-.41L20.73,2.62A.44.44,0,0,0,20.56,2.6ZM36.31,18.2H4.81a3.07,3.07,0,0,1-3.06-3.06V9.33A3.18,3.18,0,0,1,3.67,6.49L19.42.2A3.31,3.31,0,0,1,21.7.2L37.45,6.49a3.2,3.2,0,0,1,1.92,2.84v5.81A3.07,3.07,0,0,1,36.31,18.2Z"/><path class="cls-1" d="M4.37,34.83H36.75V30.89a.44.44,0,0,0-.44-.44H4.81a.43.43,0,0,0-.44.44Zm33.69,2.62h-35a1.32,1.32,0,0,1-1.31-1.31V30.89a3.07,3.07,0,0,1,3.06-3.06h31.5a3.07,3.07,0,0,1,3.06,3.06v5.25A1.32,1.32,0,0,1,38.06,37.45Z"/><path class="cls-1" d="M6.56,30.45a1.32,1.32,0,0,1-1.31-1.31V16.89a1.31,1.31,0,0,1,2.62,0V29.14A1.32,1.32,0,0,1,6.56,30.45Z"/><path class="cls-1" d="M13.56,30.45a1.32,1.32,0,0,1-1.31-1.31V16.89a1.31,1.31,0,1,1,2.62,0V29.14A1.32,1.32,0,0,1,13.56,30.45Z"/><path class="cls-1" d="M20.56,30.45a1.32,1.32,0,0,1-1.31-1.31V16.89a1.31,1.31,0,0,1,2.62,0V29.14A1.32,1.32,0,0,1,20.56,30.45Z"/><path class="cls-1" d="M27.56,30.45a1.32,1.32,0,0,1-1.31-1.31V16.89a1.31,1.31,0,0,1,2.62,0V29.14A1.32,1.32,0,0,1,27.56,30.45Z"/><path class="cls-1" d="M34.56,30.45a1.32,1.32,0,0,1-1.31-1.31V16.89a1.31,1.31,0,0,1,2.62,0V29.14A1.32,1.32,0,0,1,34.56,30.45Z"/><path class="cls-1" d="M39.81,37.45H1.31a1.31,1.31,0,0,1,0-2.62h38.5a1.31,1.31,0,0,1,0,2.62Z"/><path class="cls-1" d="M20.56,8.58a1.31,1.31,0,1,0,1.31,1.31A1.31,1.31,0,0,0,20.56,8.58Zm0,5.25A3.94,3.94,0,1,1,24.5,9.89,4,4,0,0,1,20.56,13.83Z"/></g></g></svg>