<svg xmlns="http://www.w3.org/2000/svg" viewBox="0 0 21.5 22.33"><defs><style>.cls-1{fill:#8cc542;}</style></defs><g id="Layer_2" data-name="Layer 2"><g id="Layer_1-2" data-name="Layer 1"><path class="cls-1" d="M12.7,14.29l-.16.71.27-.73A.12.12,0,0,0,12.7,14.29ZM4.34,1.56a2.16,2.16,0,0,0-1.55.75,4,4,0,0,0-1,1.46A4.69,4.69,0,0,0,1.5,5.49a8.23,8.23,0,0,0,.66,3.09A17.8,17.8,0,0,0,4,12a28.75,28.75,0,0,0,2.71,3.3,28.12,28.12,0,0,0,3.19,2.82,16.21,16.21,0,0,0,3.29,2,5.76,5.76,0,0,0,4.63.36,3.7,3.7,0,0,0,1.37-1,3.41,3.41,0,0,0,.56-.87,1.9,1.9,0,0,0,.18-.8,1.28,1.28,0,0,0-.11-.52.76.76,0,0,0-.28-.31l-3.32-2.45a2.49,2.49,0,0,0-.55-.32.51.51,0,0,0-.65,0,2.18,2.18,0,0,0-.58.47l-.76.78a1.39,1.39,0,0,1-1.45.31L12,15.59a8.48,8.48,0,0,1-1.42-1.05c-.48-.43-1-.92-1.63-1.57S8,11.9,7.46,11.29a9,9,0,0,1-1-1.46l-.12-.31A2,2,0,0,1,6.24,9a1.38,1.38,0,0,1,.38-1l.75-.81a3.28,3.28,0,0,0,.45-.58.7.7,0,0,0,.11-.35A1,1,0,0,0,7.85,6a3,3,0,0,0-.32-.55L5.21,2a.87.87,0,0,0-.37-.32A1.11,1.11,0,0,0,4.34,1.56ZM16.2,22.33a8.86,8.86,0,0,1-3.55-.82,18.77,18.77,0,0,1-3.59-2.14,31.26,31.26,0,0,1-3.37-3A30.19,30.19,0,0,1,2.82,12.9a19.56,19.56,0,0,1-2-3.7A9.93,9.93,0,0,1,0,5.49,6.42,6.42,0,0,1,.41,3.2a5.5,5.5,0,0,1,1.34-2A3.56,3.56,0,0,1,4.34,0,2.57,2.57,0,0,1,5.47.27a2.36,2.36,0,0,1,1,.84l2.32,3.4a4,4,0,0,1,.48.88,2.39,2.39,0,0,1,.2.92,2.23,2.23,0,0,1-.32,1.14,4.11,4.11,0,0,1-.67.88l-.68.74,0,.07a7.86,7.86,0,0,0,.82,1.15c.49.58,1,1.11,1.41,1.6S11.1,13,11.56,13.36a6.18,6.18,0,0,0,1.16.86l0,0,.73-.75a3.94,3.94,0,0,1,.9-.72,2,2,0,0,1,2-.11,4.2,4.2,0,0,1,.84.49l3.32,2.45a2.2,2.2,0,0,1,.8,1,3.13,3.13,0,0,1,.22,1.12,3.52,3.52,0,0,1-.32,1.46,5.37,5.37,0,0,1-2.71,2.67A5.56,5.56,0,0,1,16.2,22.33Z"/><path class="cls-1" d="M17.25,8.83a.77.77,0,0,1-.75-.78,3.55,3.55,0,0,0-1-1.82,2.7,2.7,0,0,0-1.79-1,.78.78,0,0,1,0-1.56,4,4,0,0,1,2.88,1.53A4.88,4.88,0,0,1,18,8.05.78.78,0,0,1,17.25,8.83Z"/><path class="cls-1" d="M20.75,8.83A.77.77,0,0,1,20,8.05a6.38,6.38,0,0,0-6.25-6.49A.77.77,0,0,1,13,.78.77.77,0,0,1,13.75,0,7.91,7.91,0,0,1,21.5,8.05.78.78,0,0,1,20.75,8.83Z"/></g></g></svg>