<svg xmlns="http://www.w3.org/2000/svg" viewBox="0 0 37.62 37.62"><defs><style>.cls-1{fill:#8cc542;}</style></defs><g id="Layer_2" data-name="Layer 2"><g id="Layer_1-2" data-name="Layer 1"><path class="cls-1" d="M18.81,2.62A16.19,16.19,0,1,0,35,18.81,16.2,16.2,0,0,0,18.81,2.62Zm0,35A18.81,18.81,0,1,1,37.62,18.81,18.82,18.82,0,0,1,18.81,37.62Z"/><path class="cls-1" d="M24.06,25.81a1.75,1.75,0,1,1,1.73-1.75A1.74,1.74,0,0,1,24.06,25.81Z"/><path class="cls-1" d="M13.58,15.31a1.75,1.75,0,1,1,1.73-1.75A1.74,1.74,0,0,1,13.58,15.31Z"/><path class="cls-1" d="M13.56,25.37a1.28,1.28,0,0,1-.93-.39,1.31,1.31,0,0,1,0-1.85l10.5-10.5A1.31,1.31,0,1,1,25,14.48L14.49,25A1.29,1.29,0,0,1,13.56,25.37Z"/></g></g></svg>