<svg xmlns="http://www.w3.org/2000/svg" viewBox="0 0 15.84 17.91"><defs><style>.cls-1{fill:#8cc542;}</style></defs><g id="Layer_2" data-name="Layer 2"><g id="Layer_1-2" data-name="Layer 1"><path class="cls-1" d="M7.92,3.33A6.67,6.67,0,1,0,14.59,10,6.67,6.67,0,0,0,7.92,3.33Zm0,14.58A7.92,7.92,0,1,1,15.84,10,7.93,7.93,0,0,1,7.92,17.91Z"/><path class="cls-1" d="M7.92,10.41a.62.62,0,0,1-.62-.62V5.62a.62.62,0,0,1,1.24,0V9.79A.63.63,0,0,1,7.92,10.41Z"/><path class="cls-1" d="M10.42,1.24h-5A.62.62,0,0,1,4.8.62.62.62,0,0,1,5.42,0h5A.62.62,0,0,1,11,.62.62.62,0,0,1,10.42,1.24Z"/></g></g></svg>