<?xml version="1.0" encoding="utf-8"?>
<!-- Generator: Adobe Illustrator 16.0.0, SVG Export Plug-In . SVG Version: 6.00 Build 0)  -->
<!DOCTYPE svg PUBLIC "-//W3C//DTD SVG 1.1 Tiny//EN" "http://www.w3.org/Graphics/SVG/1.1/DTD/svg11-tiny.dtd">
<svg version="1.1" baseProfile="tiny" id="Layer_1" xmlns="http://www.w3.org/2000/svg" xmlns:xlink="http://www.w3.org/1999/xlink"
	 x="0px" y="0px" width="100px" height="100px" viewBox="0 0 100 100" xml:space="preserve">
<path fill="#2A2E32" d="M68.885,29.027c0-1.209-0.983-2.199-2.199-2.199H33.314c-1.213,0-2.196,0.99-2.196,2.199
	c0,1.216,0.983,2.199,2.196,2.199h10.884c3.279,0,6.393,1.61,8.324,4.301c0.912,1.268,1.52,2.677,1.85,4.113H33.314
	c-1.213,0-2.196,0.983-2.196,2.199s0.983,2.199,2.196,2.199h21.139c-0.081,0.375-0.178,0.757-0.301,1.125
	c-0.915,2.709-2.994,4.689-5.853,5.568c-4.353,1.339-9.213,1.171-13.921,1.003l-0.99-0.033c-0.921-0.051-1.772,0.518-2.115,1.377
	c-0.343,0.861-0.11,1.844,0.582,2.459l27.108,24.109c0.417,0.369,0.938,0.557,1.462,0.557c0.601,0,1.202-0.252,1.643-0.738
	c0.802-0.904,0.724-2.301-0.182-3.104L39.261,56.242c3.45-0.008,6.933-0.266,10.332-1.314c4.245-1.305,7.347-4.274,8.725-8.361
	c0.277-0.821,0.449-1.675,0.568-2.529h7.8c1.21,0,2.199-0.983,2.199-2.199s-0.989-2.199-2.199-2.199H58.86
	c-0.375-2.347-1.31-4.643-2.765-6.674c-0.45-0.627-0.961-1.197-1.497-1.74h12.087C67.896,31.226,68.885,30.243,68.885,29.027
	L68.885,29.027z"/>
<path fill="#2A2E32" d="M50,93.461C25.036,93.461,6.54,74.965,6.54,50C6.54,25.037,25.036,6.54,50,6.54S93.46,25.037,93.46,50
	C93.46,74.965,74.964,93.461,50,93.461z M50,0.332C22.614,0.332,0.331,22.618,0.331,50C0.331,77.389,22.611,99.67,50,99.67
	c27.383,0,49.669-22.281,49.669-49.669C99.669,22.618,77.383,0.332,50,0.332z"/>
</svg>
