<?xml version="1.0" encoding="utf-8"?>
<!-- Generator: Adobe Illustrator 16.0.0, SVG Export Plug-In . SVG Version: 6.00 Build 0)  -->
<!DOCTYPE svg PUBLIC "-//W3C//DTD SVG 1.1 Tiny//EN" "http://www.w3.org/Graphics/SVG/1.1/DTD/svg11-tiny.dtd">
<svg version="1.1" baseProfile="tiny" id="Layer_1" xmlns="http://www.w3.org/2000/svg" xmlns:xlink="http://www.w3.org/1999/xlink"
	 x="0px" y="0px" width="100px" height="100px" viewBox="0 0 100 100" xml:space="preserve">
<path fill="#2A2E32" d="M49.987,7.375c-13.402,0-30.63,7.145-35.187,27.223C9.824,56.288,23.459,74.99,35.803,86.823
	c7.968,7.698,20.449,7.698,28.42,0C76.516,74.99,90.15,56.288,85.266,34.597C80.658,14.519,63.387,7.375,49.987,7.375z
	 M49.987,99.541c-6.817,0-13.679-2.584-19.022-7.691C17.377,78.768,2.363,57.9,8.03,33.079C13.141,10.552,32.807,0.466,49.987,0.466
	c0,0,0,0,0.047,0c17.177,0,36.844,10.086,41.958,32.661c5.62,24.821-9.397,45.641-22.979,58.723
	C63.67,96.957,56.805,99.541,49.987,99.541z"/>
<path fill="#2A2E32" d="M44.229,58.042c-0.874,0-1.75-0.323-2.439-1.012l-6.908-6.909c-1.336-1.336-1.336-3.549,0-4.885
	c1.335-1.336,3.545-1.336,4.881,0l4.466,4.466L60.216,33.72c1.336-1.336,3.542-1.336,4.878,0s1.336,3.549,0,4.885L46.671,57.03
	C45.98,57.719,45.106,58.042,44.229,58.042z"/>
</svg>
