<svg xmlns="http://www.w3.org/2000/svg" viewBox="0 0 16.01 18.99"><defs><style>.cls-1{fill:#d8f6b1;}</style></defs><g id="Layer_2" data-name="Layer 2"><g id="Layer_1-2" data-name="Layer 1"><path class="cls-1" d="M8,15.11A.43.43,0,1,0,8,16h3.56a.43.43,0,1,0,0-.86ZM2.66,13.82H4.44v1.73H2.66Zm4.45-.43a.43.43,0,1,0,0,.86h4.45a.43.43,0,1,0,0-.86ZM2.18,13a.43.43,0,0,0-.4.43V16a.44.44,0,0,0,.45.43H4.9A.44.44,0,0,0,5.34,16V13.39A.44.44,0,0,0,4.9,13Zm9.43-3.89H8a.43.43,0,0,0,0,.86h3.56C12.28,9.93,12.23,9.07,11.61,9.07ZM2.66,7.77H4.44V9.5H2.66Zm4.41-.43a.43.43,0,1,0,0,.86h4.45a.43.43,0,1,0,0-.86ZM2.22,6.91a.44.44,0,0,0-.45.43V9.93a.44.44,0,0,0,.45.43H4.89a.43.43,0,0,0,.44-.43V7.34a.44.44,0,0,0-.44-.43ZM5.29,4.75a.43.43,0,1,0,0,.86h4.89a.43.43,0,1,0,0-.86ZM1.23,3H14.78a.32.32,0,0,1,.34.33V17.81a.32.32,0,0,1-.34.33H1.23a.32.32,0,0,1-.34-.33V3.35A.32.32,0,0,1,1.23,3ZM6.67.86H9.33a.43.43,0,0,1,.45.43v.86H6.22V1.29A.43.43,0,0,1,6.67.86Zm0-.86A1.32,1.32,0,0,0,5.33,1.29v.86H1.23A1.22,1.22,0,0,0,0,3.34V17.8A1.22,1.22,0,0,0,1.23,19H14.78A1.22,1.22,0,0,0,16,17.8V3.34a1.21,1.21,0,0,0-1.23-1.19h-4.1V1.29A1.32,1.32,0,0,0,9.34,0Z"/></g></g></svg>