<svg xmlns="http://www.w3.org/2000/svg" viewBox="0 0 38 38"><defs><style>.cls-1{fill:#6d6c88;}.cls-2{fill:#fff;}</style></defs><g id="Layer_2" data-name="Layer 2"><g id="Layer_1-2" data-name="Layer 1"><circle class="cls-1" cx="19" cy="19" r="19"/><path class="cls-2" d="M28.5,28.5h-4V21.61c0-2-.83-2.61-2-2.61a2.48,2.48,0,0,0-2.38,2.73V28.5H16V15.79h3.8v1.78a4.3,4.3,0,0,1,3.8-2.14c2.26,0,4.63,1.31,4.63,5.23V28.5ZM11.76,14A2.19,2.19,0,0,1,9.5,11.75a2.26,2.26,0,0,1,2.26-2.26A2.19,2.19,0,0,1,14,11.75,2.19,2.19,0,0,1,11.76,14Zm2,14.49h-4V15.79h4Z"/></g></g></svg>