<svg xmlns="http://www.w3.org/2000/svg" viewBox="0 0 17 22.19"><defs><style>.cls-1,.cls-2{fill:#8cc542;}.cls-2{fill-rule:evenodd;}</style></defs><g id="Layer_2" data-name="Layer 2"><g id="Layer_1-2" data-name="Layer 1"><path class="cls-1" d="M8.51.78a7.71,7.71,0,0,0-6.14,12.4l6.14,8,6.14-8A7.71,7.71,0,0,0,8.51.78ZM8.51,22a.29.29,0,0,1-.25-.12L1.87,13.56a8.35,8.35,0,1,1,13.28,0L8.76,21.91a.39.39,0,0,1-.25.12Z"/><path class="cls-2" d="M8.51.94a7.5,7.5,0,0,0-6,3h0a7.55,7.55,0,0,0,0,9.19l6,7.85,6-7.85A7.56,7.56,0,0,0,8.51.94ZM2.25,3.71A7.79,7.79,0,0,1,8.51.63a7.89,7.89,0,0,1,6.26,3.08h0a7.88,7.88,0,0,1,0,9.57h0L8.51,21.45,2.25,13.28A7.85,7.85,0,0,1,2.25,3.71ZM8.51,22.19A.43.43,0,0,1,8.13,22L1.74,13.65h0a8.52,8.52,0,0,1,0-10.32h0A8.43,8.43,0,0,1,8.5,0a8.44,8.44,0,0,1,6.76,3.33h0a8.52,8.52,0,0,1,0,10.32h0L8.86,22h0a.44.44,0,0,1-.34.17M8.51.31A8.11,8.11,0,0,0,2,3.52a8.22,8.22,0,0,0,0,9.94l6.39,8.36h0a.13.13,0,0,0,.12.06.21.21,0,0,0,.13-.07L15,13.47a8.22,8.22,0,0,0,0-9.94A8.09,8.09,0,0,0,8.51.31Z"/><path class="cls-1" d="M8.51,4.14A4.36,4.36,0,1,0,12.87,8.5,4.37,4.37,0,0,0,8.51,4.14Zm0,9.35a5,5,0,1,1,5-5A5,5,0,0,1,8.51,13.49Z"/><path class="cls-2" d="M8.51,4.3a4.21,4.21,0,1,0,4.21,4.21A4.22,4.22,0,0,0,8.51,4.3ZM4,8.51A4.52,4.52,0,1,1,8.51,13,4.53,4.53,0,0,1,4,8.51Zm-.62,0a5.14,5.14,0,1,1,5.14,5.14A5.15,5.15,0,0,1,3.37,8.51ZM8.51,3.68a4.83,4.83,0,1,0,4.83,4.83A4.84,4.84,0,0,0,8.51,3.68Z"/></g></g></svg>