<svg xmlns="http://www.w3.org/2000/svg" viewBox="0 0 250.15 45"><defs><style>.cls-1{fill:#262443;}.cls-2{fill:#8cc542;fill-rule:evenodd;}</style></defs><g id="Layer_2" data-name="Layer 2"><g id="Layer_1-2" data-name="Layer 1"><path class="cls-1" d="M53.88,8.47c4.31,0,6.53,2.51,6.53,6.89v.86h-4.2V15.09c0-2-.8-2.71-2.22-2.71s-2.21.74-2.21,2.71c0,5.64,8.66,6.7,8.66,14.55,0,4.38-2.26,6.89-6.62,6.89s-6.6-2.51-6.6-6.89v-1.7h4.19v2c0,2,.89,2.67,2.31,2.67s2.3-.7,2.3-2.67c0-5.64-8.67-6.7-8.67-14.55C47.35,11,49.56,8.47,53.88,8.47Z"/><polygon class="cls-1" points="62.67 8.79 76.37 8.79 76.37 12.71 71.73 12.71 71.73 36.24 67.3 36.24 67.3 12.71 62.67 12.71 62.67 8.79"/><path class="cls-1" d="M83.51,8.79V30c0,2,.89,2.67,2.31,2.67s2.3-.7,2.3-2.67V8.79H92.3v20.9c0,4.39-2.26,6.9-6.6,6.9s-6.62-2.51-6.62-6.9V8.79Z"/><path class="cls-1" d="M105.48,29.65c0,2-.84,2.67-2.26,2.67h-2.49V12.71h2.49c1.42,0,2.26.7,2.26,2.67ZM103.29,8.79h-7V36.24h7c4.44,0,6.62-2.39,6.62-6.78V15.58C109.91,11.18,107.74,8.79,103.29,8.79Z"/><polygon class="cls-1" points="118.13 20.35 124.21 20.35 124.21 24.29 118.13 24.29 118.13 32.32 125.79 32.32 125.79 36.24 113.69 36.24 113.69 8.79 125.79 8.79 125.79 12.71 118.13 12.71 118.13 20.35"/><polygon class="cls-1" points="171.11 36.24 166.68 36.24 166.68 8.79 171.11 8.79 171.11 20.55 176.15 20.55 176.15 8.79 180.66 8.79 180.66 36.24 176.15 36.24 176.15 24.48 171.11 24.48 171.11 36.24"/><path class="cls-1" d="M189.08,8.79V30c0,2,.89,2.67,2.3,2.67s2.31-.72,2.31-2.67V8.79h4.2v20.9c0,4.39-2.26,6.9-6.62,6.9s-6.61-2.51-6.61-6.9V8.79Z"/><path class="cls-1" d="M211.12,29.61c0,2-.8,2.71-2.3,2.71h-2.54V23.89h2c2,0,2.86.79,2.86,3.34Zm-4.84-16.9h2.15c1.57,0,2.25.86,2.25,2.83v1.53c0,2.2-1,2.9-2.66,2.9h-1.74Zm6,8.91c2-.91,2.86-2.71,2.86-5.53v-1c0-4.23-2-6.32-6.58-6.32h-6.69V36.25h7c4.43,0,6.73-2.27,6.73-6.51V27.51C215.55,24.59,214.64,22.51,212.26,21.62Z"/><rect class="cls-1" x="218.98" y="32.08" width="4.27" height="4.15"/><rect class="cls-1" x="227.46" y="8.79" width="4.43" height="27.45"/><polygon class="cls-1" points="240.06 16.36 240.06 36.24 236.06 36.24 236.06 8.79 241.63 8.79 246.19 25.22 246.19 8.79 250.15 8.79 250.15 36.24 245.58 36.24 240.06 16.36"/><polygon class="cls-1" points="133.46 16.36 133.46 36.24 129.46 36.24 129.46 8.79 135.01 8.79 139.58 25.22 139.58 8.79 143.53 8.79 143.53 36.24 138.97 36.24 133.46 16.36"/><polygon class="cls-1" points="146.38 8.79 160.09 8.79 160.09 12.71 155.45 12.71 155.45 36.24 151.02 36.24 151.02 12.71 146.38 12.71 146.38 8.79"/><path class="cls-2" d="M10.73,23.46l5-6L9.42,12.38a6.52,6.52,0,0,1,.77-1.14A7.43,7.43,0,0,1,20.61,9.8l11.14,8.89V15.82A15.89,15.89,0,0,0,0,14.88Z"/><path class="cls-2" d="M21.82,22.3l-5,6,5.6,4.47a6.58,6.58,0,0,1-.78,1.14,7.45,7.45,0,0,1-10.42,1.44L0,26.41v2.77a15.88,15.88,0,0,0,31.73,1.05Z"/></g></g></svg>