<svg xmlns="http://www.w3.org/2000/svg" viewBox="0 0 23.25 21.38"><defs><style>.cls-1{fill:#8cc542;}</style></defs><g id="Layer_2" data-name="Layer 2"><g id="Layer_1-2" data-name="Layer 1"><path class="cls-1" d="M17,21.38H6.22a.87.87,0,0,1,0-1.74H17c3.09,0,4.59-1.61,4.59-4.91V6.64c0-3.31-1.5-4.91-4.59-4.91H6.22c-3.09,0-4.59,1.61-4.59,4.91a.85.85,0,0,1-.81.87A.85.85,0,0,1,0,6.65C0,2.43,2.27,0,6.22,0H17C21,0,23.25,2.43,23.25,6.65v8.09C23.24,19,21,21.38,17,21.38Z"/><path class="cls-1" d="M11.62,11.7a3.86,3.86,0,0,1-2.53-.91L5.71,7.9a.9.9,0,0,1-.13-1.21.78.78,0,0,1,1.14-.14L10.1,9.44a2.44,2.44,0,0,0,3,0l3.38-2.89a.77.77,0,0,1,1.14.14.89.89,0,0,1-.13,1.21l-3.38,2.89A3.91,3.91,0,0,1,11.62,11.7Z"/><path class="cls-1" d="M7.3,16.76H.81A.87.87,0,0,1,.81,15H7.3a.87.87,0,0,1,0,1.74Z"/><path class="cls-1" d="M4.05,12.13H.81a.87.87,0,0,1,0-1.74H4.05a.87.87,0,0,1,0,1.74Z"/></g></g></svg>