<svg xmlns="http://www.w3.org/2000/svg" viewBox="0 0 466.66 451.92"><g id="Layer_2" data-name="Layer 2"><g id="Layer_1-2" data-name="Layer 1"><path d="M51.42,451.92H331.14a51.46,51.46,0,0,0,51.43-51.42v-288h74.76a9.35,9.35,0,0,0,9.33-9.33V51.43A51.46,51.46,0,0,0,415.24,0H111.72A51.46,51.46,0,0,0,60.29,51.43V349.16h-9a51.38,51.38,0,0,0,.1,102.76ZM448,51.42V93.8H382.57V51.42a32.72,32.72,0,1,1,65.43,0ZM79,51.42a32.81,32.81,0,0,1,32.77-32.76h264A51.12,51.12,0,0,0,364,51.42V400.49a32.76,32.76,0,1,1-32.76-32.76,9.33,9.33,0,1,0,0-18.66H79.05ZM51.42,367.82H291.57a51.52,51.52,0,0,0,0,65.53H51.42a32.76,32.76,0,1,1,0-65.52Z"/><path d="M119.93,83.16h95.3a9.33,9.33,0,1,0,0-18.66h-95.3a9.33,9.33,0,0,0,0,18.66Z"/><path d="M119.93,156.52h203a9.33,9.33,0,1,0,0-18.66h-203a9.33,9.33,0,1,0,0,18.66Z"/><path d="M119.93,229.89h203a9.34,9.34,0,1,0,0-18.67h-203a9.34,9.34,0,0,0,0,18.67Z"/><path d="M322.93,284.57h-203a9.34,9.34,0,0,0,0,18.67h203a9.34,9.34,0,1,0,0-18.67Z"/></g></g></svg>