<?xml version="1.0" encoding="utf-8"?>
<!-- Generator: Adobe Illustrator 16.0.0, SVG Export Plug-In . SVG Version: 6.00 Build 0)  -->
<!DOCTYPE svg PUBLIC "-//W3C//DTD SVG 1.1 Tiny//EN" "http://www.w3.org/Graphics/SVG/1.1/DTD/svg11-tiny.dtd">
<svg version="1.1" baseProfile="tiny" id="Layer_1" xmlns="http://www.w3.org/2000/svg" xmlns:xlink="http://www.w3.org/1999/xlink"
	 x="0px" y="0px" width="100px" height="100px" viewBox="0 0 100 100" xml:space="preserve">
<path fill="#2A2E32" d="M17.773,35.039c-7.272,0-10.358,3.085-10.358,10.358v36.831c0,7.271,3.086,10.357,10.358,10.357h22.098
	c-1.658-2.719-2.532-6.171-2.532-10.357V35.039H17.773z M54.603,99.491h-36.83c-11.143,0-17.264-6.121-17.264-17.264V45.396
	c0-11.143,6.122-17.264,17.264-17.264h23.019c1.888,0,3.453,1.568,3.453,3.453v50.642c0,7.271,3.086,10.357,10.358,10.357
	c1.889,0,3.454,1.569,3.454,3.454C58.057,97.923,56.491,99.491,54.603,99.491z"/>
<path fill="#2A2E32" d="M21.226,28.132h16.114V17.774c0-0.417,0-0.784,0-1.151H26.98c-3.176,0-5.755,2.575-5.755,5.755V28.132z
	 M40.792,35.039H17.773c-1.888,0-3.453-1.569-3.453-3.453v-9.208c0-6.999,5.662-12.66,12.661-12.66h14.318
	c1.058,0,2.072,0.503,2.716,1.337c0.644,0.871,0.874,1.979,0.597,2.993c-0.273,1.007-0.367,2.158-0.367,3.726v13.812
	C44.245,33.47,42.68,35.039,40.792,35.039z"/>
<path fill="#2A2E32" d="M59.207,58.058c-1.889,0-3.453-1.568-3.453-3.454V31.585c0-1.885,1.564-3.453,3.453-3.453
	c1.885,0,3.453,1.568,3.453,3.453v23.018C62.66,56.489,61.092,58.058,59.207,58.058z"/>
<path fill="#2A2E32" d="M77.622,58.058c-1.885,0-3.452-1.568-3.452-3.454V31.585c0-1.885,1.567-3.453,3.452-3.453
	s3.453,1.568,3.453,3.453v23.018C81.075,56.489,79.507,58.058,77.622,58.058z"/>
<path fill="#2A2E32" d="M62.66,92.585h11.51V77.623c0-0.647-0.505-1.151-1.151-1.151h-9.208c-0.646,0-1.15,0.504-1.15,1.151V92.585z
	 M77.622,99.491H59.207c-1.889,0-3.453-1.568-3.453-3.452V77.623c0-4.416,3.637-8.056,8.057-8.056h9.208
	c4.417,0,8.057,3.64,8.057,8.056v18.416C81.075,97.923,79.507,99.491,77.622,99.491z"/>
<path fill="#2A2E32" d="M22.377,76.472c-1.889,0-3.453-1.567-3.453-3.452V54.604c0-1.884,1.564-3.452,3.453-3.452
	c1.888,0,3.453,1.568,3.453,3.452V73.02C25.83,74.904,24.265,76.472,22.377,76.472z"/>
<path fill="#2A2E32" d="M54.603,7.416c-7.271,0-10.358,3.086-10.358,10.358v64.454c0,7.271,3.086,10.357,10.358,10.357h27.624
	c7.271,0,10.357-3.086,10.357-10.357V17.774c0-7.272-3.086-10.358-10.357-10.358H54.603z M82.227,99.491H54.603
	c-11.142,0-17.263-6.121-17.263-17.264V17.774c0-11.143,6.122-17.264,17.263-17.264h27.624c11.143,0,17.264,6.122,17.264,17.264
	v64.454C99.49,93.37,93.369,99.491,82.227,99.491z"/>
</svg>
