<svg xmlns="http://www.w3.org/2000/svg" viewBox="0 0 33 33.55"><defs><style>.cls-1{fill:#8cc542;}</style></defs><g id="Layer_2" data-name="Layer 2"><g id="Layer_1-2" data-name="Layer 1"><path class="cls-1" d="M1.33,1.33V28.94A3.26,3.26,0,0,0,4.59,32.2H25.15A4.41,4.41,0,0,1,23.78,29V1.33ZM28.39,33.55H4.6A4.6,4.6,0,0,1,0,29V.67A.67.67,0,0,1,.67,0H24.46a.67.67,0,0,1,.67.67V29c.06,1.88,1.13,2.93,3.36,3.27a.67.67,0,0,1-.1,1.33Z"/><path class="cls-1" d="M25.12,17.44v11.5a3.26,3.26,0,0,0,6.52,0V17.44Zm3.27,16.11a4.6,4.6,0,0,1-4.6-4.6V16.78a.67.67,0,0,1,.67-.67h7.87a.67.67,0,0,1,.67.67V29A4.63,4.63,0,0,1,28.39,33.55Z"/><path class="cls-1" d="M4.69,9.3H9.31V4.69H4.69ZM10,10.64H4A.67.67,0,0,1,3.35,10V4A.67.67,0,0,1,4,3.35h6a.67.67,0,0,1,.67.67v6A.67.67,0,0,1,10,10.64Z"/><path class="cls-1" d="M21.11,6.15H13.34a.67.67,0,0,1,0-1.34h7.77a.67.67,0,1,1,0,1.34Z"/><path class="cls-1" d="M21.11,9.17H13.34a.67.67,0,0,1,0-1.34h7.77a.67.67,0,0,1,0,1.34Z"/><path class="cls-1" d="M21.1,14.2H4a.67.67,0,1,1,0-1.34H21.1a.67.67,0,0,1,0,1.34Z"/><path class="cls-1" d="M21.1,18.39H4a.67.67,0,0,1,0-1.34H21.1a.67.67,0,0,1,0,1.34Z"/><path class="cls-1" d="M21.1,22.58H4a.67.67,0,1,1,0-1.34H21.1a.67.67,0,1,1,0,1.34Z"/><path class="cls-1" d="M21.1,26.78H4a.67.67,0,1,1,0-1.34H21.1a.67.67,0,0,1,0,1.34Z"/><path class="cls-1" d="M21.1,31H4a.67.67,0,0,1,0-1.34H21.1a.67.67,0,1,1,0,1.34Z"/></g></g></svg>