<svg xmlns="http://www.w3.org/2000/svg" viewBox="0 0 16.72 16.72"><defs><style>.cls-1{fill:#fff;}</style></defs><g id="Layer_2" data-name="Layer 2"><g id="Layer_1-2" data-name="Layer 1"><path class="cls-1" d="M13.59,7.29A6.31,6.31,0,0,0,7.29,1V2a5.31,5.31,0,0,1,5.3,5.3Zm-6.3,6.3a6.31,6.31,0,0,0,6.3-6.3h-1a5.3,5.3,0,0,1-5.3,5.3ZM1,7.29a6.31,6.31,0,0,0,6.3,6.3v-1A5.31,5.31,0,0,1,2,7.29ZM7.29,1A6.31,6.31,0,0,0,1,7.29H2A5.3,5.3,0,0,1,7.29,2Zm6.3,6.3A6.29,6.29,0,0,1,7.3,13.58v1a7.3,7.3,0,0,0,7.29-7.29ZM7.29,1a6.29,6.29,0,0,1,6.29,6.29h1A7.3,7.3,0,0,0,7.29,0ZM1,7.29A6.29,6.29,0,0,1,7.29,1V0A7.3,7.3,0,0,0,0,7.29Zm6.29,6.3A6.29,6.29,0,0,1,1,7.3H0a7.3,7.3,0,0,0,7.29,7.29Z"/><path class="cls-1" d="M7.29,1.49a5.8,5.8,0,1,0,5.8,5.8A5.8,5.8,0,0,0,7.29,1.49Zm0,12.6A6.79,6.79,0,1,1,14.08,7.3,6.8,6.8,0,0,1,7.29,14.09Z"/><path class="cls-1" d="M14.4,14.4h0v1a1,1,0,0,0,.7-.29Zm0,0h0l.71.7a1,1,0,0,0,0-1.41Zm-1.33-1.33L14.4,14.4l.71-.71-1.33-1.33Zm0,0h0l.7-.71a1,1,0,0,0-1.41,0Zm0,0h0l-.71-.7a1,1,0,0,0,0,1.41ZM14.4,14.4l-1.33-1.33-.71.71,1.33,1.33Zm0,0h0l-.7.71a1,1,0,0,0,.7.29Zm-.81-.81h0v1a1,1,0,0,0,.7-.29Zm-.52-.52h0l0,0,.08.12a2.29,2.29,0,0,1,.18.31,1,1,0,0,1,.1.25s0,0,0,0a.37.37,0,0,1,.1-.21l.71.71a.72.72,0,0,0,.19-.41,1,1,0,0,0,0-.3,2.27,2.27,0,0,0-.18-.48,3.64,3.64,0,0,0-.49-.74Zm-.81-.81.81.81.71-.71L13,11.55Zm0,0h0l.7-.71a1,1,0,0,0-1.41,0Zm0,0h0l-.71-.7a1,1,0,0,0,0,1.41Zm.81.81-.81-.81-.71.71.81.81Zm.52.51.14,0h0l-.05,0-.24-.18-.38-.33-.71.71c.07.07.27.25.46.4l.3.23.16.1.1.05a.62.62,0,0,0,.2,0Zm1.16.47.35-.35Zm-.7.7-.35.35Zm-.63-2-.35.35Zm-.81-.81-.35.35Zm-.7.7.35-.35Z"/><path class="cls-1" d="M13.59,14.08a4.08,4.08,0,0,1-.87-.66l-.81-.81a.49.49,0,0,1,.7-.7l.81.81c.19.19.71,1,.52,1.22A.49.49,0,0,1,13.59,14.08Z"/><path class="cls-1" d="M14.4,14.9a.49.49,0,0,1-.35-.15l-1.33-1.33a.49.49,0,0,1,.7-.7l1.33,1.33a.5.5,0,0,1-.35.85Z"/><path class="cls-1" d="M15.72,15.72h0v1a1,1,0,0,0,.7-.29Zm0,0h0l.71.7a1,1,0,0,0,0-1.41ZM14.4,14.4l1.33,1.33.71-.71-1.33-1.33Zm0,0h0l.7-.71a1,1,0,0,0-1.41,0Zm0,0h0l-.71-.7a1,1,0,0,0,0,1.41Zm1.33,1.32L14.4,14.39l-.71.71L15,16.43Zm0,0h0l-.7.71a1,1,0,0,0,.7.29Zm-.81-.81h0v1a1,1,0,0,0,.7-.29Zm-.51-.51h0l0,0,.08.12a2.29,2.29,0,0,1,.18.31,1,1,0,0,1,.1.25s0,0,0,0a.37.37,0,0,1,.1-.21l.71.71a.72.72,0,0,0,.19-.41,1,1,0,0,0,0-.3,2.27,2.27,0,0,0-.18-.48,3.64,3.64,0,0,0-.49-.74Zm-.82-.81.81.81.71-.71-.81-.81Zm0,0h0l.7-.71a1,1,0,0,0-1.41,0Zm0,0h0l-.71-.7a1,1,0,0,0,0,1.41Zm.81.81-.81-.81-.71.71.81.81Zm.51.51.14,0h0l-.05,0-.24-.18-.38-.33-.71.71c.07.07.27.25.46.4l.3.23.16.1.1.05a.62.62,0,0,0,.2,0Zm1.16.46.35-.35Zm-.7.7-.35.35Zm-.62-2-.35.35Zm-.81-.81-.35.35Zm-.7.7.35-.35Z"/><path class="cls-1" d="M14.91,15.41a4.08,4.08,0,0,1-.87-.66l-.81-.81a.49.49,0,0,1,.7-.7l.81.81c.19.19.71,1,.52,1.22A.52.52,0,0,1,14.91,15.41Z"/><path class="cls-1" d="M15.72,16.22a.49.49,0,0,1-.35-.15L14,14.74a.49.49,0,0,1,.7-.7l1.33,1.33a.5.5,0,0,1,0,.7A.49.49,0,0,1,15.72,16.22Z"/></g></g></svg>