<?xml version="1.0" encoding="utf-8"?>
<!-- Generator: Adobe Illustrator 16.0.0, SVG Export Plug-In . SVG Version: 6.00 Build 0)  -->
<!DOCTYPE svg PUBLIC "-//W3C//DTD SVG 1.1 Tiny//EN" "http://www.w3.org/Graphics/SVG/1.1/DTD/svg11-tiny.dtd">
<svg version="1.1" baseProfile="tiny" id="Layer_1" xmlns="http://www.w3.org/2000/svg" xmlns:xlink="http://www.w3.org/1999/xlink"
	 x="0px" y="0px" width="100px" height="100px" viewBox="0 0 100 100" xml:space="preserve">
<path fill="#2A2E32" d="M25.649,91.783c3.045,0.606,6.504,0.879,10.515,0.879h27.673c4.014,0,7.474-0.272,10.521-0.879
	c-2.45-8.849-12.554-15.4-24.358-15.4C38.193,76.383,28.093,82.935,25.649,91.783z M63.837,99.581H36.164
	c-6.086,0-11.159-0.598-15.451-1.889c-1.567-0.461-2.583-1.988-2.49-3.603C19.376,80.304,33.35,69.465,50,69.465
	c16.647,0,30.584,10.789,31.78,24.625c0.138,1.665-0.879,3.142-2.493,3.603C74.999,98.983,69.927,99.581,63.837,99.581z"/>
<path fill-rule="evenodd" fill="#2A2E32" d="M30.031,43.45c0-11.041,8.925-19.97,19.969-19.97c11.043,0,19.969,8.929,19.969,19.97
	c0,11.033-8.915,20.02-19.969,20.02C38.946,63.47,30.031,54.483,30.031,43.45z M50,30.399c-7.221,0-13.051,5.83-13.051,13.051
	c0,7.235,5.84,13.101,13.051,13.101s13.051-5.866,13.051-13.101C63.052,36.229,57.222,30.399,50,30.399z M13.82,13.824
	c-4.223,4.223-6.482,11.155-6.482,22.34v27.673c0,8.438,1.283,14.485,3.737,18.751c1.813,3.15,4.374,5.514,7.956,7.149
	C22.465,77.717,35.512,69.465,50,69.465c14.486,0,27.537,8.252,30.973,20.272c3.575-1.636,6.14-3.999,7.956-7.149
	c2.45-4.266,3.732-10.313,3.732-18.751V36.164c0-11.185-2.262-18.117-6.485-22.34c-4.223-4.223-11.155-6.486-22.34-6.486H36.164
	C24.976,7.338,18.043,9.601,13.82,13.824z M8.927,8.931C15.082,2.776,24.292,0.42,36.164,0.42h27.673
	c11.876,0,21.086,2.356,27.24,8.511s8.504,15.364,8.504,27.233v27.673c0,8.993-1.34,16.438-4.655,22.196
	c-3.401,5.901-8.654,9.678-15.667,11.667c-0.994,0.281-2.061,0.101-2.911-0.482c-0.851-0.592-1.384-1.528-1.47-2.552
	C74.056,85.009,63.809,76.383,50,76.383c-13.804,0-24.055,8.626-24.873,18.283c-0.086,1.023-0.627,1.96-1.478,2.552
	c-0.85,0.583-1.917,0.764-2.912,0.482c-7.012-1.989-12.265-5.766-15.66-11.667C1.764,80.275,0.42,72.83,0.42,63.837V36.164
	C0.42,24.295,2.772,15.085,8.927,8.931z"/>
</svg>
