<svg xmlns="http://www.w3.org/2000/svg" viewBox="0 0 38 38"><defs><style>.cls-1{fill:#6d6c88;}.cls-2{fill:#fff;}</style></defs><g id="Layer_2" data-name="Layer 2"><g id="Layer_1-2" data-name="Layer 1"><circle class="cls-1" cx="19" cy="19" r="19"/><path class="cls-2" d="M28.5,13.06a6.73,6.73,0,0,1-2.26.59,3.35,3.35,0,0,0,1.66-2.14,7.69,7.69,0,0,1-2.49,1,4.15,4.15,0,0,0-2.85-1.19A3.9,3.9,0,0,0,18.76,16a11.09,11.09,0,0,1-8.07-4,4,4,0,0,0,1.19,5.23,4.93,4.93,0,0,1-1.78-.48,4.18,4.18,0,0,0,3.09,3.92,4.48,4.48,0,0,1-1.78.12,3.86,3.86,0,0,0,3.68,2.73,8.05,8.05,0,0,1-5.58,1.42,11.57,11.57,0,0,0,5.94,1.78,11,11,0,0,0,11-11.64A5.36,5.36,0,0,0,28.5,13.06Z"/></g></g></svg>