<svg xmlns="http://www.w3.org/2000/svg" width="16" height="16" viewBox="0 0 16 16">
    <g fill="none" fill-rule="evenodd">
        <path fill="#00D59C" fill-rule="nonzero" d="M15.235 6.33l-.33-.226a1.024 1.024 0 0 1-.4-1.13l.104-.383c.174-.591-.226-1.2-.835-1.304l-.4-.07c-.435-.07-.783-.4-.852-.834l-.07-.4a1.03 1.03 0 0 0-1.304-.818l-.383.122a1.042 1.042 0 0 1-1.13-.383L9.39.557A1.026 1.026 0 0 0 7.861.4l-.296.278c-.33.296-.8.365-1.2.14L6.017.625a1.046 1.046 0 0 0-1.46.522L4.4 1.53a.998.998 0 0 1-1.009.644l-.4-.017a1.018 1.018 0 0 0-1.078 1.095l.035.4c.035.435-.226.852-.626 1.026l-.365.157a1.04 1.04 0 0 0-.505 1.46l.209.348c.226.383.174.87-.122 1.2l-.26.296c-.418.47-.331 1.183.19 1.53l.331.227c.365.243.522.713.4 1.13l-.157.4c-.173.591.227 1.2.835 1.304l.4.07c.435.07.783.4.852.835l.07.4a1.03 1.03 0 0 0 1.304.817l.383-.122c.417-.121.887.035 1.13.383l.244.33a1.026 1.026 0 0 0 1.53.157l.296-.278c.33-.296.8-.365 1.2-.14l.348.192c.539.296 1.217.052 1.46-.522l.157-.382a.998.998 0 0 1 1.009-.644l.4.017a1.018 1.018 0 0 0 1.078-1.095l-.017-.4a1.045 1.045 0 0 1 .626-1.026l.365-.157c.574-.243.8-.922.504-1.46l-.208-.348a1.023 1.023 0 0 1 .121-1.2l.261-.296a1.012 1.012 0 0 0-.156-1.53z"/>
        <path fill="#FFF" stroke="#FFF" stroke-width=".3" d="M12.048 5.117a.388.388 0 0 0-.557 0l-5.113 5.096-1.704-1.704a.388.388 0 0 0-.557 0 .388.388 0 0 0 0 .556l1.966 1.965.017.018a.41.41 0 0 0 .278.122.346.346 0 0 0 .279-.122l.017-.018 5.374-5.373c.156-.14.156-.383 0-.54z"/>
    </g>
</svg>
