<?xml version="1.0" encoding="utf-8"?>
<!-- Generator: Adobe Illustrator 16.0.0, SVG Export Plug-In . SVG Version: 6.00 Build 0)  -->
<!DOCTYPE svg PUBLIC "-//W3C//DTD SVG 1.1 Tiny//EN" "http://www.w3.org/Graphics/SVG/1.1/DTD/svg11-tiny.dtd">
<svg version="1.1" baseProfile="tiny" id="Layer_1" xmlns="http://www.w3.org/2000/svg" xmlns:xlink="http://www.w3.org/1999/xlink"
	 x="0px" y="0px" width="100px" height="100px" viewBox="0 0 100 100" xml:space="preserve">
<path fill="#2A2E32" d="M12.886,7.656c-1.483,0-2.828,0.548-3.885,1.582c-1.157,1.134-1.808,2.771-1.808,4.592v59.667
	c0,2.909,2.358,5.726,5,6.119l1.389,0.201c10.417,1.48,26.392,7.06,35.651,12.493c0.412,0.201,1.021,0.247,1.252,0.146
	c9.304-5.479,25.32-11.112,35.788-12.596l1.57-0.19c2.647-0.347,5.007-3.211,5.007-6.127V13.93c0-1.829-0.653-3.404-1.811-4.592
	c-1.157-1.135-2.775-1.683-4.441-1.582c-0.144,0-0.557,0-0.65,0v22.572c0,1.381-0.695,2.616-1.854,3.257
	c-1.156,0.647-2.502,0.594-3.559-0.193l-7.323-5.187L65.9,33.392c-1.063,0.74-2.41,0.841-3.567,0.193
	c-1.114-0.641-1.852-1.876-1.852-3.257v-14.47c-1.989,1.033-3.789,2.076-5.368,3.064l-0.737,0.493
	c-2.548,1.675-6.165,1.675-8.617,0.047l-1.106-0.741C36.825,13.489,22.558,8.45,13.487,7.656
	C13.255,7.656,13.067,7.656,12.886,7.656z M50.021,99.866c-1.389,0-2.779-0.347-3.936-1.036c-8.659-5.038-23.845-10.37-33.38-11.705
	l-1.345-0.201C5.297,86.138,0.291,80.063,0.291,73.497V13.83c0-3.897,1.433-7.455,4.081-10.024C7.004,1.235,10.434,0,14.043,0.348
	c10.135,0.887,25.517,6.319,34.212,12.1l1.113,0.695c0.327,0.146,1.021,0.193,1.303,0l0.737-0.495
	c3.097-2.075,6.989-4.097,11.248-5.926c1.067-0.449,2.268-0.301,3.244,0.393c0.978,0.694,1.525,1.829,1.525,3.064v13.234l3.85-2.716
	c1.157-0.842,2.676-0.842,3.832,0l3.853,2.716V4.546c0-1.775,1.199-3.311,2.819-3.65c1.346-0.248,2.69-0.447,3.892-0.548
	c0.088,0,0.464,0,0.552,0c3.385-0.293,6.855,0.942,9.447,3.51c2.643,2.563,4.08,6.12,4.08,10.025v59.613
	c0,6.613-5.006,12.641-11.111,13.427l-1.533,0.201c-9.537,1.335-24.816,6.713-33.295,11.705
	C52.798,99.52,51.408,99.866,50.021,99.866z"/>
<path fill="#2A2E32" d="M50.021,93.182c-1.896,0-3.474-1.576-3.474-3.472V20.259c0-1.903,1.578-3.473,3.474-3.473
	c1.894,0,3.472,1.57,3.472,3.473V89.71C53.493,91.647,51.915,93.182,50.021,93.182z"/>
<path fill="#2A2E32" d="M73.17,20.057c0.651,0,1.346,0.192,1.946,0.641l3.844,2.716V9.044c-3.706,0.888-7.735,2.177-11.578,3.704
	v10.666l3.843-2.716C71.825,20.25,72.519,20.057,73.17,20.057z M82.432,34.032c-0.695,0-1.347-0.2-1.945-0.64l-7.316-5.187
	l-7.313,5.187c-1.063,0.74-2.409,0.841-3.567,0.193c-1.113-0.641-1.852-1.868-1.852-3.257V10.18c0-1.536,0.884-2.863,2.179-3.457
	c6.388-2.717,13.376-4.84,19.258-5.827c1.019-0.201,2.04,0.146,2.828,0.834c0.781,0.693,1.202,1.728,1.202,2.823v25.775
	c0,1.389-0.695,2.616-1.854,3.257C83.545,33.886,82.988,34.032,82.432,34.032z"/>
</svg>
