<svg xmlns="http://www.w3.org/2000/svg" viewBox="0 0 34.98 34.98"><defs><style>.cls-1{fill:#8cc542;}</style></defs><g id="Layer_2" data-name="Layer 2"><g id="Layer_1-2" data-name="Layer 1"><path class="cls-1" d="M33.86,3.39H1.12V1.13H33.86ZM32.73,24.84H2.25V4.52H32.73Zm1.13,2.26H1.12V26H33.86ZM17.49,33.87a.56.56,0,1,1,.56-.56A.56.56,0,0,1,17.49,33.87ZM34.43,0H.56A.56.56,0,0,0,0,.56V4a.56.56,0,0,0,.56.56h.56V24.83H.56a.56.56,0,0,0-.56.56v2.26a.56.56,0,0,0,.56.56H16.93V31.7a1.69,1.69,0,1,0,1.12,0V28.21H34.42a.56.56,0,0,0,.56-.56V25.39a.56.56,0,0,0-.56-.56h-.56V4.51h.56A.56.56,0,0,0,35,4V.56A.54.54,0,0,0,34.43,0Z"/><path class="cls-1" d="M13,6.81l7.42,2.78L13,12.37,5.55,9.59Zm4.52,7.3c0,.69-1.76,1.69-4.52,1.69s-4.52-1-4.52-1.69V11.89l4.32,1.62a.65.65,0,0,0,.2,0,.48.48,0,0,0,.2,0l4.32-1.62v2.22Zm-13.75-4,3.59,1.34v2.64c0,1.61,2.43,2.82,5.65,2.82s5.65-1.21,5.65-2.82V11.47l1.13-.42v1a1.12,1.12,0,0,0,0,1.94v1.29h1.13V14a1.12,1.12,0,0,0,0-1.94V10.63l1.33-.5a.56.56,0,0,0,0-1.06l-9-3.39a.55.55,0,0,0-.4,0l-9,3.39a.56.56,0,0,0-.37.53.55.55,0,0,0,.35.53Z"/><path class="cls-1" d="M24.83,6.77h5.65V9H24.83Zm-.57,3.39H31a.56.56,0,0,0,.56-.56V6.21A.56.56,0,0,0,31,5.65H24.26a.56.56,0,0,0-.56.56V9.6A.56.56,0,0,0,24.26,10.16Z"/><rect class="cls-1" x="7.33" y="18.06" width="8.47" height="1.13"/><rect class="cls-1" x="3.38" y="20.32" width="15.81" height="1.13"/><rect class="cls-1" x="20.31" y="20.32" width="1.13" height="1.13"/><rect class="cls-1" x="22.57" y="20.32" width="4.52" height="1.13"/><rect class="cls-1" x="3.38" y="22.58" width="18.63" height="1.13"/><rect class="cls-1" x="25.96" y="11.29" width="5.65" height="1.13"/><rect class="cls-1" x="23.14" y="13.55" width="8.47" height="1.13"/><rect class="cls-1" x="23.14" y="15.81" width="8.47" height="1.13"/><rect class="cls-1" x="23.14" y="22.58" width="5.65" height="1.13"/></g></g></svg>