<?xml version="1.0" encoding="utf-8"?>
<!-- Generator: Adobe Illustrator 16.0.0, SVG Export Plug-In . SVG Version: 6.00 Build 0)  -->
<!DOCTYPE svg PUBLIC "-//W3C//DTD SVG 1.1 Tiny//EN" "http://www.w3.org/Graphics/SVG/1.1/DTD/svg11-tiny.dtd">
<svg version="1.1" baseProfile="tiny" id="Layer_1" xmlns="http://www.w3.org/2000/svg" xmlns:xlink="http://www.w3.org/1999/xlink"
	 x="0px" y="0px" width="100px" height="100px" viewBox="0 0 100 100" xml:space="preserve">
<path fill="#2A2E32" d="M76.008,38.989H51.713c-1.901,0-3.47-1.576-3.47-3.47c0-1.904,1.569-3.473,3.47-3.473h24.295
	c1.893,0,3.469,1.569,3.469,3.473C79.477,37.413,77.949,38.989,76.008,38.989z"/>
<path fill="#2A2E32" d="M27.42,42.502c-0.882,0-1.757-0.326-2.451-1.019l-3.47-3.47c-1.345-1.338-1.345-3.558,0-4.902
	c1.338-1.345,3.558-1.345,4.902,0l1.02,1.018l7.959-7.958c1.338-1.346,3.558-1.346,4.902,0c1.345,1.344,1.345,3.563,0,4.902
	L29.871,41.483C29.22,42.134,28.346,42.502,27.42,42.502z"/>
<path fill="#2A2E32" d="M76.008,71.379H51.713c-1.901,0-3.47-1.575-3.47-3.471c0-1.9,1.569-3.47,3.47-3.47h24.295
	c1.893,0,3.469,1.569,3.469,3.47C79.477,69.804,77.949,71.379,76.008,71.379z"/>
<path fill="#2A2E32" d="M27.42,74.893c-0.882,0-1.757-0.325-2.451-1.019l-3.47-3.471c-1.345-1.337-1.345-3.557,0-4.902
	c1.338-1.346,3.558-1.346,4.902,0l1.02,1.02l7.959-7.961c1.338-1.345,3.558-1.345,4.902,0c1.345,1.344,1.345,3.564,0,4.903
	L29.871,73.874C29.22,74.523,28.346,74.893,27.42,74.893z"/>
<path fill="#2A2E32" d="M36.119,7.198c-21.329,0-28.921,7.592-28.921,28.921v27.762c0,21.328,7.592,28.922,28.921,28.922h27.762
	c21.33,0,28.922-7.594,28.922-28.922V36.119c0-21.329-7.592-28.921-28.922-28.921H36.119z M63.881,99.743H36.119
	c-25.125,0-35.861-10.738-35.861-35.862V36.119c0-25.125,10.736-35.861,35.861-35.861h27.762c25.125,0,35.861,10.736,35.861,35.861
	v27.762C99.742,89.005,89.006,99.743,63.881,99.743z"/>
</svg>
