<svg xmlns="http://www.w3.org/2000/svg" viewBox="0 0 37.72 37.33"><defs><style>.cls-1{fill:#8cc542;}</style></defs><g id="Layer_2" data-name="Layer 2"><g id="Layer_1-2" data-name="Layer 1"><path class="cls-1" d="M18.86,2.61A10.92,10.92,0,0,0,17.2,24.33a9.39,9.39,0,0,0,3.26,0,10.92,10.92,0,0,0-1.6-21.72Zm0,24.5a11.8,11.8,0,0,1-2.07-.17,13.54,13.54,0,1,1,4.07,0A12.51,12.51,0,0,1,18.86,27.11Z"/><path class="cls-1" d="M21.5,26.83l6.7,7.7a.44.44,0,0,0,.78-.17l.61-2.57a3,3,0,0,1,2.28-2.27l2.89-.68a.42.42,0,0,0,.32-.3A.43.43,0,0,0,35,28.1l-5.76-5.76A13.58,13.58,0,0,1,21.5,26.83Zm-13-4.48L2.76,28.11a.4.4,0,0,0-.1.44.39.39,0,0,0,.32.3l2.89.68A3,3,0,0,1,8.15,31.8l.61,2.57a.45.45,0,0,0,.77.19l6.7-7.72A13.49,13.49,0,0,1,8.52,22.35Zm.66,15a3.12,3.12,0,0,1-3-2.36L5.57,32.4a.46.46,0,0,0-.33-.33l-2.89-.68A3.06,3.06,0,0,1,.9,26.24l6.82-6.83a1.3,1.3,0,0,1,1-.38,1.29,1.29,0,0,1,1,.58,11,11,0,0,0,7.47,4.73,9.39,9.39,0,0,0,3.26,0A11,11,0,0,0,28,19.61a1.31,1.31,0,0,1,1-.58,1.29,1.29,0,0,1,1.05.38l6.83,6.83a3.06,3.06,0,0,1-1.45,5.15l-2.89.68a.46.46,0,0,0-.33.33L31.53,35a3.06,3.06,0,0,1-5.32,1.25l-7.35-8.45-7.35,8.47A3,3,0,0,1,9.18,37.33Z"/><path class="cls-1" d="M14.68,12.48l1.21,1.21A2.6,2.6,0,0,1,16.56,16l-.33,1.4,1.4-.82a2.53,2.53,0,0,1,2.5,0l1.4.82L21.21,16a2.57,2.57,0,0,1,.65-2.27l1.21-1.21-1.52-.26a2.56,2.56,0,0,1-1.8-1.33l-.88-1.72L18,10.92a2.58,2.58,0,0,1-1.79,1.33Zm7.49,7.88a3.15,3.15,0,0,1-1.65-.51l-1.66-1-1.66,1a2.5,2.5,0,0,1-2.89.12,2.46,2.46,0,0,1-.75-2.78l.42-1.8-1.4-1.3a2.53,2.53,0,0,1-.79-2.54,2.47,2.47,0,0,1,2.12-1.61l1.87-.31.89-2a2.5,2.5,0,0,1,2.19-1.56,2.51,2.51,0,0,1,2.19,1.58l1,2.06,1.73.21a2.53,2.53,0,0,1,2.12,1.61,2.53,2.53,0,0,1-.79,2.54l-1.45,1.45.46,1.63A2.48,2.48,0,0,1,23.4,20,2,2,0,0,1,22.17,20.36Z"/></g></g></svg>