<svg xmlns="http://www.w3.org/2000/svg" viewBox="0 0 34.98 34.99"><defs><style>.cls-1{fill:#8cc542;}</style></defs><g id="Layer_2" data-name="Layer 2"><g id="Layer_1-2" data-name="Layer 1"><path class="cls-1" d="M33.6,19l-3,.33a.72.72,0,0,0-.62.57,12.31,12.31,0,0,1-2,4.8.69.69,0,0,0,0,.83l1.92,2.37-2,2.05L25.48,28a.69.69,0,0,0-.83,0,12.6,12.6,0,0,1-4.8,2,.72.72,0,0,0-.57.62l-.34,3.05H16l-.33-3a.72.72,0,0,0-.57-.62,12.31,12.31,0,0,1-4.8-2,.71.71,0,0,0-.83,0L7.14,29.91l-2-2.05L7,25.49a.68.68,0,0,0,0-.83,12.6,12.6,0,0,1-2-4.8.72.72,0,0,0-.62-.57l-3-.34v-2.9l3-.33A.73.73,0,0,0,5,15.15a12.42,12.42,0,0,1,2-4.81.71.71,0,0,0,0-.83L5.08,7.14l2.05-2L9.5,7a.69.69,0,0,0,.83,0,12.57,12.57,0,0,1,4.81-2,.72.72,0,0,0,.57-.62l.33-3h2.9l.33,3a.72.72,0,0,0,.57.62,12.31,12.31,0,0,1,4.8,2,.69.69,0,0,0,.83,0L27.84,5.1l2.05,2.05L28,9.52a.68.68,0,0,0,0,.83,12.57,12.57,0,0,1,2,4.81.72.72,0,0,0,.62.57l3.05.33Zm.78-4.23-3.15-.34A13.75,13.75,0,0,0,29.41,10l2-2.47a.7.7,0,0,0,0-.93L28.41,3.66a.7.7,0,0,0-.93-.05L25,5.6a14.22,14.22,0,0,0-4.39-1.82L20.28.63a.7.7,0,0,0-.7-.63H15.42a.69.69,0,0,0-.69.62l-.34,3.15A13.75,13.75,0,0,0,10,5.59l-2.47-2a.7.7,0,0,0-.93,0L3.66,6.59a.7.7,0,0,0-.05.93L5.6,10a14.22,14.22,0,0,0-1.82,4.39l-3.15.34a.7.7,0,0,0-.63.7v4.16a.69.69,0,0,0,.62.69l3.15.34A13.75,13.75,0,0,0,5.59,25l-2,2.47a.7.7,0,0,0,0,.93l2.94,2.94a.7.7,0,0,0,.93.05l2.47-2a14.22,14.22,0,0,0,4.39,1.82l.34,3.15a.69.69,0,0,0,.69.62h4.16a.69.69,0,0,0,.69-.62l.34-3.15A13.75,13.75,0,0,0,25,29.4l2.47,2a.7.7,0,0,0,.93-.05l2.94-2.94a.7.7,0,0,0,.05-.93l-2-2.47a14.22,14.22,0,0,0,1.82-4.39l3.15-.34a.69.69,0,0,0,.62-.69V15.42a.66.66,0,0,0-.6-.69Z"/><path class="cls-1" d="M17.5,25.44a7.93,7.93,0,1,1,7.93-7.93A7.94,7.94,0,0,1,17.5,25.44Zm0-17.27a9.33,9.33,0,1,0,9.33,9.33A9.34,9.34,0,0,0,17.5,8.17Z"/><path class="cls-1" d="M18.49,11.87a.71.71,0,0,0-.81.57l-1.74,9.9a.71.71,0,0,0,.57.81h.12a.7.7,0,0,0,.69-.58l1.74-9.9a.71.71,0,0,0-.57-.81Z"/><path class="cls-1" d="M20.28,14.92a.71.71,0,0,0,0,1l1.6,1.6L20.29,19.1a.71.71,0,0,0,0,1,.69.69,0,0,0,.5.2.74.74,0,0,0,.5-.2L23.38,18a.71.71,0,0,0,0-1l-2.09-2.09a.73.73,0,0,0-1,0Z"/><path class="cls-1" d="M14.71,14.92a.71.71,0,0,0-1,0L11.63,17a.71.71,0,0,0,0,1l2.09,2.09a.69.69,0,0,0,.5.2.74.74,0,0,0,.5-.2.71.71,0,0,0,0-1l-1.6-1.59,1.59-1.59a.72.72,0,0,0,0-1Z"/></g></g></svg>