<svg xmlns="http://www.w3.org/2000/svg" viewBox="0 0 25.01 40.29"><defs><style>.cls-1{fill:#8cc542;}</style></defs><g id="Layer_2" data-name="Layer 2"><g id="Layer_1-2" data-name="Layer 1"><path class="cls-1" d="M20.84,33.34h2.08a.68.68,0,0,1,.69.7V38.2a.68.68,0,0,1-.69.7H20.84Zm-16,0H19.45V38.9H4.87a.78.78,0,0,1-.43-.07c-.88-.79-1.78-1.78-2.68-2.71.88-.9,1.74-1.85,2.66-2.7A.79.79,0,0,1,4.87,33.34Zm0-1.39a2.25,2.25,0,0,0-1.13.27,3.25,3.25,0,0,0-.73.63L.3,35.64a.69.69,0,0,0,0,1C1.46,37.71,2.51,39.06,3.75,40a2.26,2.26,0,0,0,1.12.26H22.92A2.09,2.09,0,0,0,25,38.2V34A2.1,2.1,0,0,0,22.92,32Zm7.63-7.64a.7.7,0,1,0,0,1.39h5.56a.7.7,0,1,0,0-1.39ZM4.16,22.23H6.94V25H4.16Zm7-.7a.7.7,0,1,0,0,1.39h7a.7.7,0,1,0,0-1.39ZM3.4,20.84a.69.69,0,0,0-.63.69V25.7a.69.69,0,0,0,.7.69H7.64a.69.69,0,0,0,.69-.69V21.53a.69.69,0,0,0-.69-.69Zm14.73-6.26H12.42A.69.69,0,0,0,12.49,16h5.56C19.19,16,19.11,14.58,18.13,14.58Zm-14-2.08H6.94v2.78H4.16ZM11,11.81a.7.7,0,1,0,.07,1.39h7a.7.7,0,1,0,0-1.39Zm-7.57-.7a.7.7,0,0,0-.7.7V16a.7.7,0,0,0,.7.7H7.64a.69.69,0,0,0,.69-.7V11.81a.7.7,0,0,0-.69-.7Zm4.8-3.47A.7.7,0,0,0,8.34,9H16a.7.7,0,1,0,0-1.39ZM1.92,4.86H23.09a.51.51,0,0,1,.53.53V28.64a.51.51,0,0,1-.53.53H1.92a.51.51,0,0,1-.53-.53V5.39A.51.51,0,0,1,1.92,4.86Zm8.5-3.47h4.16a.68.68,0,0,1,.7.69V3.47H9.72V2.08A.68.68,0,0,1,10.42,1.39Zm0-1.39A2.1,2.1,0,0,0,8.33,2.08V3.47H1.92A1.93,1.93,0,0,0,0,5.39V28.64a1.93,1.93,0,0,0,1.92,1.92H23.09A1.93,1.93,0,0,0,25,28.64V5.39a1.93,1.93,0,0,0-1.92-1.92H16.68V2.08A2.1,2.1,0,0,0,14.59,0Z"/></g></g></svg>