<svg xmlns="http://www.w3.org/2000/svg" viewBox="0 0 14.6 18.02"><defs><style>.cls-1{fill:#8cc542;}</style></defs><g id="Layer_2" data-name="Layer 2"><g id="Layer_1-2" data-name="Layer 1"><path class="cls-1" d="M7.33,2.07A4.39,4.39,0,0,0,3,6.45V8.86a4.64,4.64,0,0,1-.56,2l-1,1.59a1,1,0,0,0-.12.91A1.08,1.08,0,0,0,2,14a16.63,16.63,0,0,0,10.66,0,1,1,0,0,0,.64-.62,1.06,1.06,0,0,0-.08-.9l-1-1.59a4.62,4.62,0,0,1-.56-2V6.46A4.38,4.38,0,0,0,7.33,2.07Zm0,14.05a17.94,17.94,0,0,1-5.72-.93A2.32,2.32,0,0,1,.14,13.81a2.23,2.23,0,0,1,.23-2l1-1.59a3.35,3.35,0,0,0,.38-1.39V6.44A5.62,5.62,0,0,1,13,6.44V8.85a3.49,3.49,0,0,0,.38,1.4l.95,1.58a2.3,2.3,0,0,1,.18,2A2.28,2.28,0,0,1,13,15.19,17.73,17.73,0,0,1,7.33,16.12Z"/><path class="cls-1" d="M8.88,2.29l-.18,0A4.62,4.62,0,0,0,8,2.12a4.91,4.91,0,0,0-2,.15.61.61,0,0,1-.64-.17.62.62,0,0,1-.12-.65,2.27,2.27,0,0,1,4.24,0,.64.64,0,0,1-.12.65A.6.6,0,0,1,8.88,2.29Z"/><path class="cls-1" d="M7.33,18a3.1,3.1,0,0,1-2.21-.92,3.16,3.16,0,0,1-.92-2.21H5.45a1.88,1.88,0,0,0,1.88,1.88A1.88,1.88,0,0,0,9.2,14.89h1.25A3.13,3.13,0,0,1,7.33,18Z"/></g></g></svg>