<?xml version="1.0" encoding="utf-8"?>
<!-- Generator: Adobe Illustrator 16.0.0, SVG Export Plug-In . SVG Version: 6.00 Build 0)  -->
<!DOCTYPE svg PUBLIC "-//W3C//DTD SVG 1.1 Tiny//EN" "http://www.w3.org/Graphics/SVG/1.1/DTD/svg11-tiny.dtd">
<svg version="1.1" baseProfile="tiny" id="Layer_1" xmlns="http://www.w3.org/2000/svg" xmlns:xlink="http://www.w3.org/1999/xlink"
	 x="0px" y="0px" width="100px" height="100px" viewBox="0 0 100 100" xml:space="preserve">
<path fill="#262443" d="M50.107,7.192c-2.771,0-5.539,0.6-7.532,1.895L13.32,27.231c-3.401,2.133-5.395,5.554-5.395,9.444
	c0,3.883,1.944,7.312,5.395,9.438l29.255,18.195c4.032,2.494,11.128,2.494,15.158,0l29.111-18.195
	c3.401-2.126,5.345-5.554,5.345-9.438c0-3.89-1.943-7.311-5.345-9.444L57.733,9.043C55.695,7.843,52.924,7.192,50.107,7.192z
	 M50.107,73.144c-4.13,0-8.31-1.018-11.567-3.007L9.288,51.948C3.844,48.572,0.59,42.873,0.59,36.675
	c0-6.205,3.254-11.896,8.697-15.273L38.589,3.258C45.1-0.77,55.259-0.77,61.721,3.301l29.11,18.195
	c5.392,3.377,8.648,9.068,8.648,15.223s-3.257,11.853-8.648,15.229l-29.11,18.188C58.463,72.175,54.287,73.144,50.107,73.144z"/>
<path fill="#262443" d="M50.021,99.758c-2.035,0-4.118-0.276-5.785-0.833l-14.764-4.909c-6.989-2.314-12.496-9.951-12.449-17.306
	l0.043-21.709c0-1.896,1.576-3.473,3.471-3.473c1.898,0,3.472,1.577,3.472,3.473L23.966,76.71c0,4.347,3.608,9.352,7.727,10.738
	l14.763,4.903c1.852,0.601,5.279,0.601,7.13,0l14.76-4.903c4.122-1.387,7.73-6.392,7.73-10.695V55.281
	c0-1.9,1.576-3.471,3.471-3.471c1.902,0,3.473,1.57,3.473,3.471v21.472c0,7.362-5.46,14.948-12.447,17.313l-14.766,4.902
	C54.14,99.481,52.058,99.758,50.021,99.758z"/>
<path fill="#262443" d="M95.826,67.36c-1.941,0-3.558-1.577-3.558-3.472v-27.77c0-1.895,1.616-3.471,3.558-3.471
	c1.942,0,3.558,1.577,3.558,3.471v27.77C99.384,65.783,97.769,67.36,95.826,67.36z"/>
</svg>
