<svg xmlns="http://www.w3.org/2000/svg" viewBox="0 0 38 38"><defs><style>.cls-1{fill:#8cc542;}.cls-2{fill:#fff;}</style></defs><g id="Layer_2" data-name="Layer 2"><g id="Layer_1-2" data-name="Layer 1"><circle class="cls-1" cx="19" cy="19" r="19"/><path class="cls-2" d="M19,9.5H15.11a5.72,5.72,0,0,0-2.29.46A5.13,5.13,0,0,0,11.1,11.1,5.55,5.55,0,0,0,10,12.82a9,9,0,0,0-.46,2.29v7.78A5.72,5.72,0,0,0,10,25.18,5.13,5.13,0,0,0,11.1,26.9,5.55,5.55,0,0,0,12.82,28a9,9,0,0,0,2.29.46h7.78A5.72,5.72,0,0,0,25.18,28,5.13,5.13,0,0,0,26.9,26.9,5.55,5.55,0,0,0,28,25.18a9,9,0,0,0,.46-2.29V15.11A5.72,5.72,0,0,0,28,12.82,5.13,5.13,0,0,0,26.9,11.1,5.55,5.55,0,0,0,25.18,10a9,9,0,0,0-2.29-.46Zm0,1.72h3.89a4.49,4.49,0,0,1,1.72.34,3.62,3.62,0,0,1,1.14.69,2.51,2.51,0,0,1,.69,1.14,8.59,8.59,0,0,1,.34,1.72v7.78a4.49,4.49,0,0,1-.34,1.72,3.62,3.62,0,0,1-.69,1.14,2.46,2.46,0,0,1-1.14.69,8.59,8.59,0,0,1-1.72.34H15.11a4.49,4.49,0,0,1-1.72-.34,3.62,3.62,0,0,1-1.14-.69,2.46,2.46,0,0,1-.69-1.14,8.59,8.59,0,0,1-.34-1.72V15.11a4.49,4.49,0,0,1,.34-1.72,3.62,3.62,0,0,1,.69-1.14,2.51,2.51,0,0,1,1.14-.69,8.59,8.59,0,0,1,1.72-.34Z"/><path class="cls-2" d="M19,22.09A3.09,3.09,0,1,1,22.09,19,3.15,3.15,0,0,1,19,22.09Zm0-7.84A4.75,4.75,0,1,0,23.75,19,4.72,4.72,0,0,0,19,14.25Z"/><circle class="cls-2" cx="23.75" cy="14.25" r="1.19"/></g></g></svg>