<svg xmlns="http://www.w3.org/2000/svg" viewBox="0 0 29.29 34.04"><defs><style>.cls-1{fill:#8cc542;}</style></defs><g id="Layer_2" data-name="Layer 2"><g id="Layer_1-2" data-name="Layer 1"><path class="cls-1" d="M8.44,27h.21a4.06,4.06,0,0,1,3,1.68l1.6,2.14a1.6,1.6,0,0,0,2.74,0l1.6-2.14a4,4,0,0,1,6.24-.33c1.2,1.28,2,1.44,2.26,1.33s.79-1.08.79-2.72V9.17c0-5.72-1-6.79-6.29-6.79H8.66c-5.29,0-6.29,1.08-6.29,6.79V27c0,1.66.41,2.58.79,2.72s1.06,0,2.26-1.33A4.29,4.29,0,0,1,8.44,27Zm6.21,7a4.1,4.1,0,0,1-3.26-1.74l-1.6-2.14a1.72,1.72,0,0,0-1.25-.73A1.75,1.75,0,0,0,7.21,30l-.9-.81.87.81c-2.28,2.44-4,2.25-4.88,1.92S0,30.51,0,27V9.17C0,2.14,2,0,8.66,0h12c6.63,0,8.66,2.14,8.66,9.17V27c0,3.5-1.44,4.59-2.3,4.94s-2.58.52-4.88-1.92a1.66,1.66,0,0,0-1.35-.59,1.76,1.76,0,0,0-1.27.73l-1.6,2.14A4,4,0,0,1,14.65,34Z"/><path class="cls-1" d="M21.35,16.62H12.64a1.19,1.19,0,1,1,0-2.38h8.71a1.19,1.19,0,0,1,0,2.38Z"/><path class="cls-1" d="M21.35,10.29H12.64a1.19,1.19,0,0,1,0-2.38h8.71a1.19,1.19,0,0,1,0,2.38Z"/><circle class="cls-1" cx="7.97" cy="9.1" r="1.58"/><circle class="cls-1" cx="7.97" cy="15.44" r="1.58"/></g></g></svg>