<svg xmlns="http://www.w3.org/2000/svg" viewBox="0 0 12.58 17.34"><defs><style>.cls-1{fill:#fff;}</style></defs><g id="Layer_2" data-name="Layer 2"><g id="Layer_1-2" data-name="Layer 1"><path class="cls-1" d="M6.29,1.5A2.49,2.49,0,0,1,8.77,4h1.5a4,4,0,0,0-4-4ZM3.81,4A2.5,2.5,0,0,1,6.29,1.5V0a4,4,0,0,0-4,4ZM6.29,6.52A2.49,2.49,0,0,1,3.81,4H2.31a4,4,0,0,0,4,4ZM8.77,4A2.5,2.5,0,0,1,6.29,6.52V8a4,4,0,0,0,4-4ZM1.5,14.59a2.42,2.42,0,0,1,2-2.39l-.24-1.48A3.91,3.91,0,0,0,0,14.59Zm11.08,0A3.91,3.91,0,0,0,9.3,10.72L9.06,12.2a2.41,2.41,0,0,1,2,2.39Zm-1.5.35a.89.89,0,0,1-.89.9v1.5a2.4,2.4,0,0,0,2.39-2.4ZM0,14.94a2.39,2.39,0,0,0,2.39,2.4v-1.5a.9.9,0,0,1-.89-.9Zm3.51-2.73a17.23,17.23,0,0,1,5.55,0l.24-1.48a19.06,19.06,0,0,0-6,0Zm6.69,3.63H2.39v1.5H10.2Zm-8.7-.9V14.6H0v.34Zm9.58-.35v.34h1.5v-.34Zm-1.9-3.13.12-.74Zm-5.79,0-.12-.74Z"/></g></g></svg>