<svg xmlns="http://www.w3.org/2000/svg" viewBox="0 0 34.99 31.85"><defs><style>.cls-1{fill:#8cc542;}</style></defs><g id="Layer_2" data-name="Layer 2"><g id="Layer_1-2" data-name="Layer 1"><path class="cls-1" d="M31.66,6.37c-.46.16-.76.24-1.21.36l-.32.08a.57.57,0,0,0-.4.69.57.57,0,0,0,.54.42l.15,0,.31-.08c.49-.13.81-.22,1.37-.41l.66-.16A8.8,8.8,0,0,1,29,10.39a8.41,8.41,0,0,1-1.32-.11.57.57,0,0,0-.18,1.12,9.48,9.48,0,0,0,1.61.13l.4,0c-2.86,2.32-6.91,3.34-9.76,1V9.36a8,8,0,0,0,4.94-3.6C25.46,4.76,26,4,27.11,3.9l6.48-.59a7.49,7.49,0,0,1-1.93,3.06Zm-10,10.86a2.2,2.2,0,1,1,0,4.4H19.8V17.22h1.81Zm-3.83,13.3c0,.08-.05.16-.29.18s-.27-.1-.28-.15l-.9-3.89V22.76h2.36v3.91ZM12.26,25a1.09,1.09,0,0,1,0-2.18h2.92V25Zm4-17.7a3.84,3.84,0,0,0,1.18.2,3.57,3.57,0,0,0,1.18-.2V21.64H16.31ZM5.42,11.55l.4,0a9.65,9.65,0,0,0,1.61-.13.57.57,0,0,0-.18-1.12,7.24,7.24,0,0,1-1.32.11A8.8,8.8,0,0,1,2.21,7.24l.66.16c.56.2.88.28,1.37.41l.32.08.15,0a.56.56,0,0,0,.54-.42.57.57,0,0,0-.4-.69l-.32-.09c-.45-.12-.74-.2-1.2-.36A7.55,7.55,0,0,1,1.39,3.28l6.47.59C9,4,9.52,4.73,10.25,5.73A8,8,0,0,0,15.2,9.34V12.5c-2.87,2.39-6.92,1.37-9.78-.95ZM17.49,1.13A2.59,2.59,0,1,1,14.9,3.72,2.59,2.59,0,0,1,17.49,1.13ZM34.87,2.3a.55.55,0,0,0-.49-.21L27,2.76C25.38,3,24.63,4,23.84,5.08a7,7,0,0,1-4,3.1V6.63a3.72,3.72,0,1,0-4.62,0V8.18a7,7,0,0,1-4-3.1C10.37,4,9.62,3,8,2.76L.61,2.09A.56.56,0,0,0,0,2.83a12.54,12.54,0,0,0,1.36,3A.58.58,0,0,0,.94,6a.55.55,0,0,0-.18.53,6.56,6.56,0,0,0,3.21,4,.57.57,0,0,0-.28,1A11.3,11.3,0,0,0,11.39,15a7,7,0,0,0,3.81-1.08v2.18h-3a2.62,2.62,0,0,0-1.57,4.73.53.53,0,0,0,.34.11.57.57,0,0,0,.34-1,1.5,1.5,0,0,1,.89-2.7h3v4.41H12.28a2.22,2.22,0,0,0,0,4.44H15.2v.66s0,.08,0,.13l.92,4a1.37,1.37,0,0,0,1.34,1h.06a1.39,1.39,0,0,0,1.35-1l.92-4a.53.53,0,0,0,0-.13v-.66h2.92a1.09,1.09,0,0,1,0,2.18H21.67a.56.56,0,1,0,0,1.12h1.06a2.22,2.22,0,0,0,0-4.44H19.81V22.76h1.81a3.33,3.33,0,0,0,0-6.66H19.81V13.92A7,7,0,0,0,23.62,15a11.3,11.3,0,0,0,7.7-3.52.56.56,0,0,0-.29-1,6.55,6.55,0,0,0,3.21-4A.55.55,0,0,0,34.06,6a.57.57,0,0,0-.45-.14,12.72,12.72,0,0,0,1.36-3,.61.61,0,0,0-.1-.54Z"/></g></g></svg>