<svg xmlns="http://www.w3.org/2000/svg" viewBox="0 0 38 30"><defs><style>.cls-1{fill:#8cc542;}</style></defs><g id="Layer_2" data-name="Layer 2"><g id="Layer_1-2" data-name="Layer 1"><path class="cls-1" d="M28,19.22c-.08,2.13-.57,3.2-1,3.3h-.09a.75.75,0,0,1-.33-.09.65.65,0,0,0-.18-.15l-.18-.09a13.57,13.57,0,0,1-3-5c1.28-.79,1.84-2.93,1.28-5.26S22.49,7.9,21,7.8a23.2,23.2,0,0,1-.15-3.34c.08-2.13.57-3.2,1-3.3h.09c1.1,0,3.55,3.58,5.12,10.06a30.63,30.63,0,0,1,1,8ZM21.13,9a4.23,4.23,0,0,1,2.31,3.19,4.24,4.24,0,0,1-.58,3.88c-.37-1.07-.73-2.26-1.05-3.58S21.29,10.1,21.13,9ZM10.74,19.49l-3,.72-2-8.12,2.74-.66c4.73-1.14,8.94-5.2,11.2-7.75,0,.23,0,.47-.05.73a24.58,24.58,0,0,0,.22,4.07v.06s0,0,0,0a37.58,37.58,0,0,0,.78,4.18A39.68,39.68,0,0,0,22,16.93V17a.63.63,0,0,0,.1.2,21.73,21.73,0,0,0,1.89,4c-3.07-1.21-8.46-2.85-13.22-1.7Zm3.41,3.57-2.81,1.27L9.68,20.92,11,20.6a12.19,12.19,0,0,1,1.81-.29Zm1,5.65A1.55,1.55,0,0,1,13.13,28l-1.29-2.65,2.81-1.27,1.25,2.57a1.55,1.55,0,0,1-.71,2.06ZM6.32,20.56a4.2,4.2,0,0,1-3.18-.48,4.16,4.16,0,0,1-1.39-5.74,4.18,4.18,0,0,1,2.57-1.87l.38-.09,2,8.11Zm21.85-9.63C26.9,5.67,24.41,0,22,0a1.47,1.47,0,0,0-.36,0,2,2,0,0,0-1.28,1.2l-.1.08C18.83,3.08,13.9,8.9,8.28,10.26L4,11.37h0A5.29,5.29,0,0,0,.79,13.73a5.3,5.3,0,0,0,1.77,7.32,5.33,5.33,0,0,0,4,.61l.89-.21h0l1.07-.26,3.56,7.31A2.68,2.68,0,0,0,14.53,30a2.74,2.74,0,0,0,1.17-.27,2.67,2.67,0,0,0,1.23-3.58l-2.88-5.91c5.14,0,10.38,2.34,11.58,2.92a2.19,2.19,0,0,0,1.3.5,1.47,1.47,0,0,0,.36,0c1.14-.27,1.79-1.78,1.89-4.37a32.7,32.7,0,0,0-1-8.32Z"/><path class="cls-1" d="M32.51,10.58a.57.57,0,0,1-.12-1.12l3.72-.91a.57.57,0,0,1,.27,1.11l-3.72.91Z"/><path class="cls-1" d="M29.7,4.36a.57.57,0,0,1-.35-1L32.7.51a.58.58,0,0,1,.8.06.58.58,0,0,1-.06.8L30.09,4.22a.5.5,0,0,1-.39.14Z"/><path class="cls-1" d="M37.52,18.41a.6.6,0,0,1-.23,0l-4.12-1a.57.57,0,1,1,.27-1.11l4.12,1A.57.57,0,0,1,38,18,.59.59,0,0,1,37.52,18.41Z"/></g></g></svg>