<svg xmlns="http://www.w3.org/2000/svg" viewBox="0 0 35.3 33.83"><defs><style>.cls-1{fill:#8cc542;}</style></defs><g id="Layer_2" data-name="Layer 2"><g id="Layer_1-2" data-name="Layer 1"><path class="cls-1" d="M19.18,5.47l-.12,0-1.41-.62-1.41.62a.32.32,0,0,1-.3,0,.28.28,0,0,1-.12-.28L16,3.6,15,2.45a.3.3,0,0,1-.06-.3.3.3,0,0,1,.23-.2l1.5-.33L17.39.29a.31.31,0,0,1,.27-.15.33.33,0,0,1,.27.15l.77,1.33L20.2,2a.31.31,0,0,1,.23.2.33.33,0,0,1-.06.3l-1,1.15.15,1.53a.33.33,0,0,1-.12.28.41.41,0,0,1-.2.06Zm-3.43-3,.76.85a.33.33,0,0,1,.08.24l-.12,1.14,1.05-.46a.36.36,0,0,1,.25,0l1.05.46-.11-1.14a.31.31,0,0,1,.08-.24l.76-.85L18.43,2.2a.3.3,0,0,1-.2-.15l-.58-1-.58,1a.34.34,0,0,1-.2.15l-1.12.24Z"/><path class="cls-1" d="M19.32,5.43h0L19,5.52Zm-.05-.14a.16.16,0,0,1-.09,0v.3a.44.44,0,0,0,.27-.09Zm.07-.14a.14.14,0,0,1-.06.14l.18.24a.48.48,0,0,0,.19-.42Zm-.16-1.53.15,1.53.3,0-.15-1.53Zm1.06-1.26-1,1.15.22.2,1-1.15Zm0-.15a.16.16,0,0,1,0,.15l.22.2a.46.46,0,0,0,.09-.45Zm-.12-.11a.15.15,0,0,1,.12.1l.29-.09a.45.45,0,0,0-.34-.3Zm-1.5-.32,1.5.33.06-.29-1.5-.33ZM17.79.38l.77,1.33.26-.15L18.05.23ZM17.65.3a.16.16,0,0,1,.14.08l.26-.15a.46.46,0,0,0-.4-.23Zm-.14.08A.16.16,0,0,1,17.65.3V0a.48.48,0,0,0-.4.23Zm-.77,1.33L17.51.38,17.25.23l-.77,1.33Zm-1.6.39,1.5-.33-.06-.29-1.5.33ZM15,2.21a.15.15,0,0,1,.12-.1l-.06-.29a.45.45,0,0,0-.34.31Zm0,.15a.14.14,0,0,1,0-.15l-.29-.09a.49.49,0,0,0,.09.45Zm1,1.15-1-1.15-.22.2,1,1.15ZM16,5.15l.15-1.53-.3,0-.15,1.53Zm.07.14A.13.13,0,0,1,16,5.15l-.3,0a.45.45,0,0,0,.19.42Zm.15,0a.16.16,0,0,1-.16,0l-.18.24a.46.46,0,0,0,.45,0Zm1.41-.62-1.41.62.12.27L17.71,5Zm1.53.62-1.41-.62L17.59,5,19,5.58Zm.06,0h-.06L19,5.58a.39.39,0,0,0,.18,0Zm-3.43-3h0v.3h0Zm1.09-.23-1.12.24.06.29,1.12-.24Zm.1-.08a.14.14,0,0,1-.1.07l.06.29a.51.51,0,0,0,.3-.22Zm.58-1-.58,1,.26.15.58-1Zm.84,1-.58-1-.26.15.58,1Zm.1.08a.16.16,0,0,1-.1-.08l-.26.15a.46.46,0,0,0,.3.22Zm1.12.24-1.12-.24-.06.29,1.12.24Zm-.69,1.1.76-.85-.22-.2-.76.85Zm0,.12a.17.17,0,0,1,0-.12l-.22-.2a.45.45,0,0,0-.11.35ZM19,4.66l-.11-1.14-.3,0,.12,1.14Zm-1.26-.31,1.05.46.12-.27-1.05-.46Zm-.12,0a.15.15,0,0,1,.13,0l.12-.28a.48.48,0,0,0-.37,0Zm-1.05.46,1.05-.46-.12-.27-1,.46Zm-.1-1.29-.12,1.14.3,0,.11-1.14Zm0-.12a.16.16,0,0,1,0,.12l.3,0a.48.48,0,0,0-.11-.35Zm-.77-.86.76.85.22-.2-.76-.85Zm3.54,2.93-.14,0,0,.11h.11Zm.18,0-.09-.12h0Zm.13-.28-.15,0Zm-.16-1.53-.11-.1,0,.05v.07Zm1-1.15-.11-.1h0Zm.07-.3.14-.05h0ZM20.19,2l0,.15h0Zm-1.5-.33-.13.08,0,.06h.06ZM17.92.3l-.13.08h0Zm-.54,0,.13.08h0Zm-.77,1.33,0,.15h.06l0-.06ZM15.11,2l0,.15h0Zm-.23.2-.14-.05h0Zm.07.3-.11.1h0Zm1,1.15.15,0V3.56l0-.05Zm-.16,1.53.15,0h0Zm.13.28L16,5.3h0Zm.3,0,.06.14h0Zm1.41-.62.06-.14-.06,0-.06,0Zm1.41.62L19,5.59h0Zm.12,0,.14,0,0-.11h-.11Zm-3.43-3v.15h0Zm1.12-.24,0,.15h0Zm.2-.14L16.94,2h0Zm.58-1L17.78,1,17.65.77,17.52,1Zm.58,1-.13.08h0Zm.2.14,0,.15h0Zm1.12.24.11.1.17-.19-.25-.05Zm-.77.86-.11-.1h0Zm-.07.23h0Zm.11,1.14-.06.14.24.1,0-.26Zm-1.05-.46.06-.14h0Zm-.24,0-.06-.14h0Zm-1.05.46-.15,0,0,.26.24-.1Zm.11-1.14-.15,0Zm-.07-.23-.11.1h0Zm-.77-.86V2.29h-.34l.22.25Z"/><path class="cls-1" d="M17.65,33.68A13.37,13.37,0,1,1,31,20.31,13.39,13.39,0,0,1,17.65,33.68Zm0-26.12A12.75,12.75,0,1,0,30.4,20.31,12.76,12.76,0,0,0,17.65,7.56Z"/><path class="cls-1" d="M30.87,20.31A13.23,13.23,0,0,1,17.65,33.53v.3A13.54,13.54,0,0,0,31.17,20.31ZM17.65,7.09A13.23,13.23,0,0,1,30.87,20.31h.3A13.54,13.54,0,0,0,17.65,6.79ZM4.43,20.31A13.23,13.23,0,0,1,17.65,7.09v-.3A13.54,13.54,0,0,0,4.13,20.31ZM17.65,33.53A13.23,13.23,0,0,1,4.43,20.31h-.3A13.54,13.54,0,0,0,17.65,33.83Zm12.9-13.22a12.91,12.91,0,0,0-12.9-12.9v.3a12.61,12.61,0,0,1,12.6,12.6Zm-12.9,12.9a12.91,12.91,0,0,0,12.9-12.9h-.3a12.61,12.61,0,0,1-12.6,12.6ZM4.75,20.31a12.91,12.91,0,0,0,12.9,12.9v-.3a12.61,12.61,0,0,1-12.6-12.6Zm12.9-12.9a12.91,12.91,0,0,0-12.9,12.9h.3a12.61,12.61,0,0,1,12.6-12.6Z"/><path class="cls-1" d="M17.73,22.82h-.08a4.4,4.4,0,0,1-3.19-1.31,7.17,7.17,0,0,1-1.9-5.38,5,5,0,0,1,1.6-3.88,5.32,5.32,0,0,1,7,0,5.09,5.09,0,0,1,1.6,3.88,7.17,7.17,0,0,1-1.9,5.38,4.49,4.49,0,0,1-3.12,1.31Zm-.08-.62h.08a3.82,3.82,0,0,0,2.68-1.13,6.62,6.62,0,0,0,1.72-4.94,4.35,4.35,0,0,0-4.48-4.57,4.36,4.36,0,0,0-4.48,4.57,6.54,6.54,0,0,0,1.72,4.94,3.81,3.81,0,0,0,2.76,1.13Z"/><path class="cls-1" d="M17.85,22.91h0l-.24-.18h0Zm2.89-1.51a4.29,4.29,0,0,1-3,1.27V23A4.6,4.6,0,0,0,21,21.62Zm1.85-5.28a7.09,7.09,0,0,1-1.85,5.28l.21.21a7.33,7.33,0,0,0,1.94-5.49ZM21,12.35a4.9,4.9,0,0,1,1.55,3.77h.3a5.21,5.21,0,0,0-1.65-4Zm-3.39-1.27a5.1,5.1,0,0,1,3.4,1.27l.2-.22a5.4,5.4,0,0,0-3.6-1.35Zm-3.39,1.27a5.08,5.08,0,0,1,3.39-1.27v-.3a5.32,5.32,0,0,0-3.59,1.35Zm-1.55,3.77a4.9,4.9,0,0,1,1.55-3.77l-.2-.22a5.21,5.21,0,0,0-1.65,4Zm1.85,5.28a7,7,0,0,1-1.86-5.28h-.3a7.33,7.33,0,0,0,1.95,5.49Zm3.09,1.27a4.27,4.27,0,0,1-3.08-1.27l-.21.21A4.6,4.6,0,0,0,17.66,23Zm.08,0h-.08V23h.08Zm0-.61h0l-.08.29h0Zm-.05.29h0v-.3h0Zm-2.86-1.18a4,4,0,0,0,2.86,1.18v-.3A3.69,3.69,0,0,1,15,21ZM13,16.12a6.74,6.74,0,0,0,1.76,5.05L15,21a6.48,6.48,0,0,1-1.67-4.84Zm4.63-4.72a4.81,4.81,0,0,0-3.14,1.16A4.59,4.59,0,0,0,13,16.13h.3a4.26,4.26,0,0,1,1.38-3.34,4.5,4.5,0,0,1,2.95-1.08Zm4.63,4.72a4.6,4.6,0,0,0-1.48-3.57,4.83,4.83,0,0,0-3.15-1.16v.3a4.55,4.55,0,0,1,3,1.08A4.26,4.26,0,0,1,22,16.11h.3Zm-1.76,5.05a6.77,6.77,0,0,0,1.76-5.05H22A6.48,6.48,0,0,1,20.31,21Zm-2.79,1.18a4,4,0,0,0,2.79-1.18L20.31,21a3.66,3.66,0,0,1-2.58,1.09v.3Zm-.07,0h.07v-.3h-.07Zm0,0h0v-.3h0Zm.08.47-.12-.09-.18.24h.3Zm3.11-1.31.1.11h0Zm.31-9.27-.1.11h0Zm-3.5-1.31v-.15h0Zm-3.5,1.31-.1-.11h0Zm.31,9.27-.1.11Zm3.19,1.31v-.15h0Zm.08,0,.12.09.18-.24h-.3Zm-.08-.62v.15l0-.29Zm0,0v-.15h0Zm-2.75-1.13-.1.11Zm2.76-9.52V11.4h0Zm2.76,9.52-.1-.11ZM17.65,22.2v-.15l0,.29Z"/><path class="cls-1" d="M17.65,30.44a.32.32,0,0,1-.28-.18L14.46,24a.31.31,0,0,1,.15-.41.32.32,0,0,1,.41.15L17.93,30a.31.31,0,0,1-.28.44Z"/><path class="cls-1" d="M17.8,30.44Zm-.08-.16-.07,0v.3a.41.41,0,0,0,.19,0Zm.07-.21a.16.16,0,0,1-.07.21l.13.27a.46.46,0,0,0,.22-.61Zm-2.91-6.24,2.91,6.24.27-.13L15.15,23.7Zm-.21-.08a.16.16,0,0,1,.21.08l.27-.13a.46.46,0,0,0-.61-.22Zm-.08.21a.16.16,0,0,1,.08-.21l-.13-.27a.46.46,0,0,0-.22.61Zm2.92,6.24L14.6,24l-.27.13,2.91,6.24Zm.14.09a.14.14,0,0,1-.14-.09l-.27.13a.46.46,0,0,0,.41.27Zm0,.15H17.5v.15h.15Zm.13,0-.06-.14h0Zm.15-.4-.14.06ZM15,23.76l.14-.06Zm-.41-.15-.06-.14Zm-.15.41-.14.06h0Zm2.91,6.25.14-.06h0Zm.28.17h.15v-.15h-.15Z"/><path class="cls-1" d="M14.74,24.2a.31.31,0,0,1-.31-.31V21.34a.31.31,0,1,1,.62,0v2.55A.32.32,0,0,1,14.74,24.2Z"/><path class="cls-1" d="M14.89,23.89a.16.16,0,0,1-.16.16v.3a.47.47,0,0,0,.46-.46Zm0-2.54V23.9h.3V21.35Zm-.15-.16a.16.16,0,0,1,.16.16h.3a.46.46,0,0,0-.46-.46v.3Zm-.16.16a.16.16,0,0,1,.16-.16v-.3a.47.47,0,0,0-.46.46Zm0,2.54V21.34h-.3v2.55Zm.16.16a.16.16,0,0,1-.16-.16h-.3a.46.46,0,0,0,.46.46v-.3Z"/><path class="cls-1" d="M26.36,30.35a.31.31,0,0,1-.31-.31V28.87c0-2.59-3-4.68-5.48-4.68a.31.31,0,0,1,0-.62,6.75,6.75,0,0,1,4.11,1.55,5,5,0,0,1,2,3.75V30a.32.32,0,0,1-.31.31ZM9,30.35A.31.31,0,0,1,8.64,30V28.87a5,5,0,0,1,2-3.75,6.73,6.73,0,0,1,4.11-1.55.31.31,0,0,1,0,.62c-2.48,0-5.48,2.09-5.48,4.68V30a.32.32,0,0,1-.31.31Z"/><path class="cls-1" d="M26.46,30.25h0l-.21.21Zm.05-.2a.16.16,0,0,1-.16.16v.3a.46.46,0,0,0,.46-.46Zm0-1.17v1.17h.3V28.88Zm-1.93-3.63a4.82,4.82,0,0,1,1.94,3.63h.3A5.09,5.09,0,0,0,24.77,25Zm-4-1.52a6.58,6.58,0,0,1,4,1.51l.19-.23a6.89,6.89,0,0,0-4.2-1.58Zm-.15.16a.16.16,0,0,1,.16-.16v-.3a.46.46,0,0,0-.46.46Zm.15.16a.16.16,0,0,1-.16-.16h-.3a.46.46,0,0,0,.46.46v-.3Zm5.64,4.83a4.49,4.49,0,0,0-1.87-3.43,6.32,6.32,0,0,0-3.77-1.4v.3a6,6,0,0,1,3.58,1.33,4.2,4.2,0,0,1,1.75,3.19h.31Zm0,1.17V28.88h-.3v1.17Zm.16.15A.16.16,0,0,1,26.2,30h-.3a.47.47,0,0,0,.46.46v-.3Zm-17.52,0h0l.2.22Zm.26-.19a.16.16,0,0,1-.16.16v.3a.46.46,0,0,0,.46-.46Zm0-1.17v1.17h.3V28.88Zm5.64-4.83A6.34,6.34,0,0,0,11,25.45,4.51,4.51,0,0,0,9.1,28.88h.3a4.2,4.2,0,0,1,1.75-3.19,6,6,0,0,1,3.58-1.33v-.31Zm.15-.16a.16.16,0,0,1-.16.16v.3a.47.47,0,0,0,.46-.46Zm-.15-.16a.16.16,0,0,1,.16.16h.3a.46.46,0,0,0-.46-.46v.3Zm-4,1.52a6.58,6.58,0,0,1,4-1.51v-.3A6.87,6.87,0,0,0,10.54,25ZM8.79,28.88a4.82,4.82,0,0,1,1.94-3.63L10.54,25a5.13,5.13,0,0,0-2,3.86Zm0,1.17V28.88h-.3v1.17ZM9,30.2A.16.16,0,0,1,8.79,30h-.3A.46.46,0,0,0,9,30.5v-.3Zm17.41.15-.11.11,0,0h.06v-.15Zm-1.69-5.22.09-.12h0Zm1.69,5.22.11-.11,0,0h-.06v.15ZM9,30.35V30.2H8.89l0,0Zm1.68-5.22.09.12ZM9,30.35v.15H9l0,0Z"/><path class="cls-1" d="M17.65,30.44a.31.31,0,0,1-.13,0,.31.31,0,0,1-.15-.41l2.91-6.24a.31.31,0,1,1,.56.26l-2.91,6.24a.3.3,0,0,1-.28.18Z"/><path class="cls-1" d="M17.65,30.59h0v-.3h0Zm.14-.39a.15.15,0,0,1-.14.09v.3a.44.44,0,0,0,.41-.27ZM20.71,24,17.8,30.2l.27.13L21,24.09Zm-.08-.21a.17.17,0,0,1,.08.21l.27.13a.46.46,0,0,0-.22-.61Zm-.21.08a.17.17,0,0,1,.21-.08l.13-.27a.46.46,0,0,0-.61.22Zm-2.91,6.24,2.91-6.24-.27-.13-2.91,6.24Zm.07.21a.17.17,0,0,1-.08-.21l-.27-.13a.46.46,0,0,0,.22.61Zm.07,0h-.06l-.13.27a.43.43,0,0,0,.19,0v-.3Zm0,.15v0Zm.28-.17-.14-.06h0ZM20.84,24,20.7,24h0Zm-.15-.41.06-.14h0Zm-.4.15-.14-.06h0ZM17.37,30l.14.06h0Zm.15.4.07-.14h0Zm.13,0v0Z"/><path class="cls-1" d="M20.56,24.2a.31.31,0,0,1-.31-.31V21.34a.31.31,0,1,1,.62,0v2.55A.31.31,0,0,1,20.56,24.2Z"/><path class="cls-1" d="M20.72,23.89a.16.16,0,0,1-.16.16v.3a.46.46,0,0,0,.46-.46Zm0-2.54V23.9H21V21.35Zm-.16-.16a.16.16,0,0,1,.16.16H21a.46.46,0,0,0-.46-.46v.3Zm-.15.16a.16.16,0,0,1,.16-.16v-.3a.47.47,0,0,0-.46.46Zm0,2.54V21.34h-.3v2.55Zm.15.16a.16.16,0,0,1-.16-.16h-.3a.46.46,0,0,0,.46.46v-.3Z"/><path class="cls-1" d="M8.75,8.27h0a.31.31,0,0,1-.25-.18l-.63-1.4L6.38,6.21A.3.3,0,0,1,6.18,6a.31.31,0,0,1,.09-.29l1.14-1V3.12a.3.3,0,0,1,.15-.26.34.34,0,0,1,.31,0l1.33.76,1.46-.47a.33.33,0,0,1,.3.06.31.31,0,0,1,.1.29L10.76,5l.9,1.25a.3.3,0,0,1,0,.3.3.3,0,0,1-.25.18L9.91,6.9,9,8.14a.31.31,0,0,1-.25.13ZM7.08,5.79l1.09.36a.3.3,0,0,1,.18.17l.47,1,.68-.92a.3.3,0,0,1,.21-.12l1.14-.12-.67-.93a.3.3,0,0,1,0-.24l.23-1.12-1.09.35a.28.28,0,0,1-.25,0L8,3.66V4.81a.33.33,0,0,1-.1.23l-.85.75Z"/><path class="cls-1" d="M8.9,8.27Zm0-.22a.16.16,0,0,1-.13.06v.3a.47.47,0,0,0,.37-.19Zm.91-1.24L8.88,8.05l.24.18L10,7Zm1.63-.22-1.53.17,0,.3,1.53-.17Zm.13-.1a.14.14,0,0,1-.13.09l0,.3a.47.47,0,0,0,.37-.27Zm0-.15a.18.18,0,0,1,0,.16l.27.12a.43.43,0,0,0-.05-.45Zm-.9-1.25.9,1.25.24-.18-.9-1.25Zm.29-1.62L10.61,5,10.9,5l.31-1.5Zm-.05-.15a.17.17,0,0,1,.05.15l.29.06a.46.46,0,0,0-.14-.43Zm-.15,0a.16.16,0,0,1,.15,0l.2-.22a.46.46,0,0,0-.45-.1Zm-1.46.47,1.46-.47L10.63,3l-1.46.47ZM7.8,3l1.33.76.15-.26L8,2.72ZM7.65,3a.15.15,0,0,1,.16,0L8,2.72a.45.45,0,0,0-.45,0Zm-.08.14A.16.16,0,0,1,7.65,3L7.5,2.72a.45.45,0,0,0-.23.39Zm0,1.53V3.11h-.3V4.65ZM6.37,5.8l1.14-1-.2-.22-1.14,1Zm0,.14a.17.17,0,0,1,0-.15l-.2-.22A.46.46,0,0,0,6,6Zm.1.12a.15.15,0,0,1-.1-.12L6,6a.45.45,0,0,0,.3.34Zm1.46.48L6.43,6.06l-.09.29,1.46.48ZM8.61,8,8,6.63l-.27.12.63,1.4Zm.13.09A.18.18,0,0,1,8.61,8l-.27.12a.47.47,0,0,0,.37.27Zm0,0h0l-.06.3h.06ZM7.07,5.64h0v.3h0Zm.75-.73L7,5.68l.2.22L8,5.13Zm0-.12a.17.17,0,0,1,0,.12l.2.22a.49.49,0,0,0,.15-.34Zm0-1.15V4.79h.3V3.64Zm1.22.44-1-.57L8,3.77l1,.57Zm.12,0a.2.2,0,0,1-.13,0l-.15.26a.47.47,0,0,0,.37,0Zm1.09-.35L9.22,4.1l.09.29L10.4,4Zm0,1.29.23-1.12-.29-.06L10,5Zm0,.13a.14.14,0,0,1,0-.12L10,5a.42.42,0,0,0,.08.36Zm.67.92-.67-.93-.24.18.67.93Zm-1.25.37,1.14-.12,0-.3-1.14.12Zm-.1.06a.14.14,0,0,1,.11-.06l0-.3a.46.46,0,0,0-.32.18Zm-.68.92.68-.92-.24-.18-.68.92ZM8.21,6.37l.47,1L9,7.29l-.47-1Zm-.09-.08a.18.18,0,0,1,.1.09l.27-.12A.44.44,0,0,0,8.22,6ZM7,5.93l1.09.36L8.21,6,7.12,5.64Zm.69-1.29h0v.3h0Zm0,.3h0v-.3h0Zm1,3.33H8.6v.15h.15ZM9,8.14l-.12-.09h0ZM9.91,6.9l0-.15H9.82l0,0Zm1.53-.16,0,.15h0Zm.24-.18.14.06h0Zm0-.31-.12.09h0ZM10.75,5,10.6,5V5l0,0Zm.32-1.5.15,0h0ZM11,3.21l-.1.11h0Zm-.3-.07,0-.14h0Zm-1.46.47-.07.13.06,0,.06,0ZM7.88,2.85,8,2.72H8Zm-.31,0-.08-.13h0Zm-.15.27h0Zm0,1.53.1.11,0,0V4.65Zm-1.14,1,.1.11h0ZM6.18,6l.15,0h0Zm.2.22,0,.14h0Zm1.46.48L8,6.62l0-.06-.06,0Zm.63,1.41L8.61,8Zm.25.18,0-.15h0Zm0,0H8.9V8.12H8.75ZM7.08,5.79v.15h.06l0,0ZM7.92,5l.1.11H8ZM8,4.79H8ZM8,3.64l.07-.13-.22-.13v.26Zm1,.57.07-.13Zm.25,0,0-.14h0Zm1.09-.35.15,0,.05-.25-.24.08ZM10.13,5l.15,0Zm0,.24-.12.09h0Zm.67.93,0,.15.26,0L11,6.09Zm-1.14.13,0,.15h0Zm-.22.12.12.09h0Zm-.67.92-.14.06.11.23.15-.21Zm-.47-1-.14.06h0Zm-.19-.17L8.21,6h0ZM7.08,5.79V5.64l0,.29Z"/><path class="cls-1" d="M3.77,14.37a.3.3,0,0,1-.18-.06l-1.25-.9-1.5.31a.29.29,0,0,1-.29-.1.3.3,0,0,1-.06-.3L1,11.86.2,10.53a.34.34,0,0,1,0-.31.32.32,0,0,1,.26-.15H2L3,8.92a.28.28,0,0,1,.29-.09.31.31,0,0,1,.23.2L4,10.49l1.4.63a.31.31,0,0,1,.18.25.32.32,0,0,1-.12.28l-1.24.91-.17,1.53a.31.31,0,0,1-.18.25.31.31,0,0,1-.13,0ZM2.41,12.78a.3.3,0,0,1,.18.06l.93.67.12-1.14a.28.28,0,0,1,.12-.21l.92-.68-1-.47a.33.33,0,0,1-.17-.18L3.11,9.74l-.77.85a.33.33,0,0,1-.23.1H1l.57,1a.35.35,0,0,1,0,.25L1.22,13l1.12-.23Z"/><path class="cls-1" d="M3.62,14.34h0l.29.06h0Zm.22-.13H3.77v.3a.37.37,0,0,0,.18,0Zm.09-.13a.18.18,0,0,1-.09.13l.12.27a.47.47,0,0,0,.27-.37Zm.16-1.53-.17,1.53.3,0,.17-1.53Zm1.3-1-1.24.91.18.24,1.24-.91Zm.07-.14a.14.14,0,0,1-.06.14l.18.24a.45.45,0,0,0,.18-.42Zm-.1-.13a.14.14,0,0,1,.09.13l.3,0A.47.47,0,0,0,5.48,11ZM4,10.64l1.4.63L5.48,11l-1.4-.63ZM3.4,9.09l.48,1.46.29-.09L3.69,9ZM3.29,9a.15.15,0,0,1,.12.11L3.69,9a.45.45,0,0,0-.34-.3ZM3.14,9a.17.17,0,0,1,.15,0l.06-.29a.46.46,0,0,0-.43.14Zm-1,1.14L3.13,9l-.22-.2L1.88,10Zm-1.64.06H2v-.3H.46Zm-.14.07a.16.16,0,0,1,.14-.08v-.3a.45.45,0,0,0-.39.23Zm0,.16a.15.15,0,0,1,0-.16l-.26-.15a.47.47,0,0,0,0,.46Zm.76,1.33L.32,10.46l-.26.15.76,1.33ZM.63,13.38l.47-1.46-.29-.09L.34,13.29Zm0,.15a.14.14,0,0,1,0-.15l-.29-.09a.47.47,0,0,0,.1.45Zm.15.05a.17.17,0,0,1-.15-.05l-.22.2a.44.44,0,0,0,.43.14Zm1.5-.31-1.5.31.06.29,1.5-.31Zm1.37.92-1.25-.9-.18.24,1.25.9Zm.09,0a.16.16,0,0,1-.09,0l-.17.25a.44.44,0,0,0,.27.09v-.31ZM2.28,12.85h0l.27-.14h0Zm.1.08h0v-.3H2.32Zm-1.12.24,1.12-.23-.06-.29-1.12.23Zm.18-1.29L1.09,13l.29.09L1.73,12Zm0-.12a.15.15,0,0,1,0,.13l.29.09a.48.48,0,0,0,0-.37Zm-.57-1,.57,1,.26-.15-.57-1Zm1.28-.23H1v.3H2.13Zm.12,0a.17.17,0,0,1-.12,0v.3a.49.49,0,0,0,.34-.15ZM3,9.63l-.77.85.22.2.77-.85Zm.62,1.14L3.27,9.68,3,9.77l.36,1.09Zm.08.1a.14.14,0,0,1-.08-.09l-.29.09a.44.44,0,0,0,.25.27Zm1,.47-1-.47-.12.27,1,.47Zm-.9.93.92-.68-.18-.24L3.68,12Zm-.06.11a.24.24,0,0,1,.06-.11L3.68,12a.46.46,0,0,0-.18.32Zm-.13,1.14.12-1.14-.3,0-.12,1.14ZM2.51,13l.93.67.18-.24-.93-.67Zm-.1,0a.16.16,0,0,1,.09,0l.18-.24a.44.44,0,0,0-.27-.09Zm1.36,1.44v-.15H3.65l0,.12Zm.13,0,.06.14H4Zm.18-.24.15,0h0Zm.16-1.53-.09-.12-.05,0v.07Zm1.24-.91.09.12h0Zm.13-.28.15,0h0Zm-.18-.25L5.49,11h0ZM4,10.5l-.14.05,0,.06.06,0ZM3.54,9l.14,0h0Zm-.22-.2,0-.15h0ZM3,8.93l.11.1ZM2,10.07v.15h.07l0-.05Zm-1.53,0v.15h0Zm-.27.15-.13-.08h0Zm0,.31.13-.07ZM1,11.87l.14.05,0-.06,0-.06ZM.48,13.33l.14.05h0Zm.07.3.11-.1Zm.29.1,0-.15h0Zm1.5-.32.09-.12-.05,0H2.32Zm1.25.9-.09.12h0Zm.18.06v.15h.12l0-.12ZM2.41,12.78l.13-.07,0-.08H2.41Zm-.06,0,0-.15h0ZM1.23,13l-.14,0L1,13.22l.25-.05Zm.35-1.09-.14,0h0Zm0-.25.13-.07h0Zm-.57-1v-.15H.72l.13.22Zm1.15,0v-.15h0Zm.23-.1.11.1h0Zm.77-.85.14-.05-.08-.24L3,9.63Zm.35,1.09.14-.05h0Zm.17.19-.06.14h0Zm1,.47.09.12L5,11.45l-.23-.11Zm-.92.67L3.68,12h0Zm-.12.22-.15,0h0Zm-.13,1.14-.09.12.21.15,0-.26Zm-.93-.67L2.5,13h0Zm-.18-.06-.13.07,0,.08h.09Z"/><path class="cls-1" d="M31.53,14.37a.31.31,0,0,1-.13,0,.3.3,0,0,1-.18-.25l-.17-1.53-1.24-.91a.28.28,0,0,1-.12-.28.31.31,0,0,1,.18-.25l1.4-.63L31.75,9a.3.3,0,0,1,.23-.2.31.31,0,0,1,.29.09l1,1.14h1.54a.3.3,0,0,1,.26.15.34.34,0,0,1,0,.31l-.76,1.33.47,1.46a.33.33,0,0,1-.06.3.31.31,0,0,1-.29.1L33,13.41l-1.25.9a.3.3,0,0,1-.18.06Zm-.92-2.89.92.68a.3.3,0,0,1,.12.21l.12,1.14.93-.67a.3.3,0,0,1,.24-.05l1.12.23-.35-1.09a.28.28,0,0,1,0-.25l.57-1H33.16a.33.33,0,0,1-.23-.1l-.77-.85-.36,1.09a.3.3,0,0,1-.17.18l-1,.47Z"/><path class="cls-1" d="M31.68,14.35h0l-.3.05Zm-.06-.16-.09,0v.3a.46.46,0,0,0,.27-.09Zm1.25-.9-1.25.9.18.24,1.25-.9Zm1.62.29L33,13.27l-.06.29,1.5.31Zm.15-.05a.17.17,0,0,1-.15.05l-.06.29a.46.46,0,0,0,.43-.14Zm0-.15a.16.16,0,0,1,0,.15l.22.2a.47.47,0,0,0,.1-.44Zm-.47-1.46.47,1.46.29-.09-.47-1.46ZM35,10.46l-.76,1.33.26.15.76-1.33Zm0-.15a.15.15,0,0,1,0,.16l.26.15a.45.45,0,0,0,0-.45Zm-.14-.08a.14.14,0,0,1,.13.08l.26-.15a.45.45,0,0,0-.39-.23Zm-1.53,0h1.54v-.3H33.31ZM32.16,9l1,1.14.22-.2-1-1.14ZM32,9a.17.17,0,0,1,.15,0l.22-.2A.47.47,0,0,0,32,8.7Zm-.11.1A.15.15,0,0,1,32,9L32,8.7a.45.45,0,0,0-.34.3Zm-.48,1.46.48-1.46L31.62,9l-.48,1.46Zm-1.49.72,1.4-.63-.12-.27-1.4.63Zm-.09.13a.2.2,0,0,1,.09-.13L29.8,11a.47.47,0,0,0-.27.37Zm.07.14a.15.15,0,0,1-.06-.14l-.3,0a.45.45,0,0,0,.19.42Zm1.24.91-1.24-.91-.18.24,1.24.91Zm.22,1.63-.17-1.53-.3,0,.17,1.53Zm.1.13a.14.14,0,0,1-.09-.13l-.3,0a.47.47,0,0,0,.27.37Zm.06,0h-.07l-.12.27a.41.41,0,0,0,.19,0Zm-.79-2.81h0l-.26.14h0Zm.85-.54-1,.47.12.27,1-.47Zm.08-.09a.14.14,0,0,1-.08.09l.12.27a.44.44,0,0,0,.25-.28ZM32,9.69l-.36,1.09.28.09.36-1.09Zm1,.79-.77-.85-.22.2.77.85Zm.12,0a.18.18,0,0,1-.12,0l-.22.2a.49.49,0,0,0,.34.15Zm1.15,0H33.17v.3h1.15Zm-.44,1.22.57-1-.26-.15-.57,1Zm0,.12a.2.2,0,0,1,0-.13l-.26-.15a.47.47,0,0,0,0,.37ZM34.21,13l-.35-1.09-.29.09.35,1.09Zm-1.29,0,1.12.23.06-.29L33,12.64Zm-.13,0a.14.14,0,0,1,.12,0l.06-.29a.42.42,0,0,0-.36.08Zm-.92.67L32.8,13l-.18-.24-.93.67Zm-.37-1.25.12,1.14.3,0-.12-1.14Zm-.06-.11a.14.14,0,0,1,.06.11l.3,0a.46.46,0,0,0-.18-.32Zm-.92-.67.92.68.18-.24-.92-.68Zm1,2.77-.15,0,0,.12h.13Zm.18-.06-.09-.12h0ZM33,13.42l0-.15h-.06l0,0Zm1.5.31,0-.15h0Zm.29-.1-.11-.1h0Zm.07-.3.14,0h0Zm-.47-1.46-.13-.07,0,.06,0,.06Zm.76-1.33.13.07h0Zm0-.31.13-.07h0Zm-.27-.15v.15h0Zm-1.53,0-.11.1,0,.05h.07Zm-1-1.14-.11.1h0ZM32,8.84l0-.15h0Zm-.22.2-.14,0Zm-.49,1.46.06.14.06,0,0-.06Zm-1.4.63L29.81,11h0Zm-.18.25.15,0h0Zm.13.28.09-.12h0Zm1.24.91.15,0v-.07l-.05,0Zm.16,1.53-.15,0h0Zm.18.24-.06.14h0Zm.13,0,.15,0,0-.12h-.13Zm-.92-2.89-.13.07.07.12.13-.06Zm1-.47-.06-.14h0Zm.17-.19-.14-.05h0Zm.35-1.08.11-.1-.17-.19L32,9.69Zm.77.84-.11.1h0Zm.23.1v-.15h0Zm1.15,0,.13.07.13-.22h-.26Zm-.57,1-.13-.07h0Zm0,.25-.14.05h0ZM34.07,13l0,.15.25.05L34.21,13ZM33,12.79l0,.15h0Zm-.24.05.09.12h0Zm-.93.67-.15,0,0,.26.21-.15Zm-.13-1.14-.15,0h0Zm-.12-.22.09-.12h0Zm-.92-.67.09-.12-.22.19Z"/><path class="cls-1" d="M26.55,8.27a.31.31,0,0,1-.25-.13L25.39,6.9l-1.53-.17a.31.31,0,0,1-.25-.18.32.32,0,0,1,0-.3L24.54,5l-.31-1.5a.29.29,0,0,1,.1-.29.3.3,0,0,1,.3-.06l1.46.47,1.33-.76a.34.34,0,0,1,.31,0,.32.32,0,0,1,.15.26V4.66l1.14,1a.28.28,0,0,1,.09.29.31.31,0,0,1-.2.23l-1.46.48-.63,1.4a.3.3,0,0,1-.25.18Zm-2.1-2.09,1.14.12a.28.28,0,0,1,.21.12l.68.92.47-1a.33.33,0,0,1,.18-.17l1.09-.36L27.37,5a.33.33,0,0,1-.1-.23V3.62l-1,.57a.35.35,0,0,1-.25,0l-1.09-.35L25.17,5a.3.3,0,0,1-.05.24l-.67.95Z"/><path class="cls-1" d="M26.44,8.38h0l.2-.22h0Zm.12-.26h0v.3h.06ZM26.69,8a.16.16,0,0,1-.13.09l0,.3A.47.47,0,0,0,27,8.15Zm.63-1.41L26.69,8l.27.12.63-1.4Zm1.55-.56-1.46.48.09.29L29,6.35Zm.1-.12a.16.16,0,0,1-.11.12l.09.28a.45.45,0,0,0,.3-.34Zm0-.14A.17.17,0,0,1,29,6l.29.06a.46.46,0,0,0-.14-.43Zm-1.14-1,1.14,1,.2-.22L28,4.54Zm-.06-1.64V4.66H28V3.12ZM27.65,3a.16.16,0,0,1,.08.14H28a.45.45,0,0,0-.23-.39ZM27.5,3a.15.15,0,0,1,.16,0l.15-.26a.45.45,0,0,0-.45,0Zm-1.34.76L27.49,3l-.15-.26L26,3.48Zm-1.58-.45L26,3.76l.09-.29L24.67,3Zm-.15,0a.14.14,0,0,1,.15,0L24.67,3a.45.45,0,0,0-.44.1Zm-.05.15a.17.17,0,0,1,.05-.15l-.2-.22a.44.44,0,0,0-.14.43ZM24.69,5l-.31-1.5-.29.06L24.4,5Zm-.92,1.37.9-1.25-.24-.18-.9,1.25Zm0,.15a.16.16,0,0,1,0-.16l-.24-.18a.45.45,0,0,0-.05.45Zm.13.1a.18.18,0,0,1-.13-.09l-.27.12a.47.47,0,0,0,.37.27Zm1.53.16-1.53-.17,0,.3,1.53.17Zm1,1.3-.91-1.24L25.27,7l.91,1.24Zm.13.07a.16.16,0,0,1-.13-.06l-.24.18a.47.47,0,0,0,.37.19ZM24.46,6h0v.3h0ZM25,5.17l-.67.93.24.18.67-.93ZM25,5a.13.13,0,0,1,0,.12l.24.17A.5.5,0,0,0,25.32,5Zm-.24-1.12L25,5,25.31,5l-.23-1.12Zm1.29.18L25,3.75,24.9,4,26,4.39Zm.12,0a.15.15,0,0,1-.13,0L26,4.38a.44.44,0,0,0,.37,0Zm1-.57-1,.57.15.26,1-.57Zm.23,1.28V3.64h-.3V4.79Zm.05.12a.17.17,0,0,1-.05-.12h-.3a.45.45,0,0,0,.15.33Zm.85.76-.85-.77-.2.22.85.77Zm-1.15.62,1.09-.36-.09-.29L27.09,6Zm-.09.08a.18.18,0,0,1,.1-.09L27.09,6a.44.44,0,0,0-.27.25Zm-.47,1,.47-1-.27-.12-.47,1Zm-.93-.9.68.92.24-.18-.68-.92Zm-.11-.06a.17.17,0,0,1,.11.06l.24-.18a.46.46,0,0,0-.32-.18Zm-1.14-.13,1.14.12,0-.3L24.47,6Zm2.11,1.94V8.12h-.38l.28.26Zm0,0,0-.15h0Zm.25-.18L26.69,8h0Zm.63-1.4-.05-.14-.06,0,0,.06Zm1.46-.49,0,.14h0Zm.2-.22.15,0h0ZM29,5.69l-.1.11h0Zm-1.14-1h-.15v.07l.05,0Zm0-1.53h0Zm-.15-.27.08-.13h0Zm-.31,0-.07-.13h0Zm-1.33.76L26,3.75l.06,0,.06,0Zm-1.46-.47L24.68,3h0Zm-.3.07.1.11h0Zm-.1.29.15,0ZM24.55,5l.12.09,0,0V5Zm-.9,1.25.12.09h0Zm0,.31-.14.06h0Zm.24.18,0,.15h0Zm1.53.16.12-.09,0,0H25.4Zm.91,1.24.12-.09h0Zm.25.13v.15h.38l-.28-.26Zm-2.1-2.09v.15h.08l0-.06Zm.67-.93.12.09h0ZM25.17,5,25,5h0Zm-.23-1.12,0-.14-.24-.08.05.25ZM26,4.24l0-.14h0Zm.25,0-.07-.13Zm1-.57h.15V3.38l-.22.13Zm0,1.15h0Zm.1.23-.1.11h0Zm.84.77.05.14.24-.08-.19-.17Zm-1.08.35L27.09,6h0ZM27,6.31l-.14-.06h0Zm-.47,1-.12.09.15.21.11-.23Zm-.67-.92.12-.09h0Zm-.22-.12,0,.15h0Zm-1.14-.13V6l0,.3Z"/></g></g></svg>