<svg xmlns="http://www.w3.org/2000/svg" viewBox="0 0 32.22 34.05"><defs><style>.cls-1{fill:#8cc542;}</style></defs><g id="Layer_2" data-name="Layer 2"><g id="Layer_1-2" data-name="Layer 1"><path class="cls-1" d="M16.13,2.38A4.46,4.46,0,0,0,13.68,3L4.15,9.24a3.81,3.81,0,0,0-1.76,3.23A3.77,3.77,0,0,0,4.15,15.7l9.53,6.22a5.1,5.1,0,0,0,4.94,0L28.1,15.7a3.87,3.87,0,0,0,0-6.46L18.62,3A4.9,4.9,0,0,0,16.13,2.38Zm0,22.57a7.09,7.09,0,0,1-3.77-1L2.83,17.7a6.25,6.25,0,0,1,0-10.46L12.38,1a7.34,7.34,0,0,1,7.54,0L29.4,7.27a6.22,6.22,0,0,1,0,10.42l-9.48,6.22A7,7,0,0,1,16.13,25Z"/><path class="cls-1" d="M16.11,34.05a6.48,6.48,0,0,1-2-.29L9.08,32.08a6.55,6.55,0,0,1-4.26-5.92l0-7.43a1.19,1.19,0,1,1,2.38,0l0,7.43a4.24,4.24,0,0,0,2.64,3.67l5.05,1.68a4.8,4.8,0,0,0,2.44,0l5.05-1.68A4.26,4.26,0,0,0,25,26.17V18.82a1.19,1.19,0,1,1,2.38,0v7.35a6.58,6.58,0,0,1-4.26,5.92l-5.05,1.68A6.49,6.49,0,0,1,16.11,34.05Z"/><path class="cls-1" d="M31,23a1.2,1.2,0,0,1-1.19-1.19v-9.5a1.19,1.19,0,0,1,2.38,0v9.5A1.2,1.2,0,0,1,31,23Z"/></g></g></svg>