<svg xmlns="http://www.w3.org/2000/svg" viewBox="0 0 35 25.36"><defs><style>.cls-1{fill:#8cc542;}</style></defs><g id="Layer_2" data-name="Layer 2"><g id="Layer_1-2" data-name="Layer 1"><path class="cls-1" d="M32.21,19.3a1.57,1.57,0,0,1,1.58,1.61v3.25H30.62V20.91A1.58,1.58,0,0,1,32.21,19.3ZM6.19,10l10,4.08h0a.61.61,0,0,0,.46,0l10-4.08v5.29A1.93,1.93,0,0,1,26,16.64,6.79,6.79,0,0,1,23.84,18a19.63,19.63,0,0,1-7.42,1.3A19.72,19.72,0,0,1,9,18a6.74,6.74,0,0,1-2.12-1.33,2,2,0,0,1-.67-1.37ZM16.41,1.26l14.2,5.8-14.2,5.79L2.21,7.06ZM16.4,0a.78.78,0,0,0-.22,0L.38,6.49a.6.6,0,0,0,0,1.12L5,9.49v5.78a3.2,3.2,0,0,0,1,2.22,7.62,7.62,0,0,0,2.51,1.59,20.66,20.66,0,0,0,7.9,1.39,20.8,20.8,0,0,0,7.89-1.39,7.9,7.9,0,0,0,2.51-1.59,3.2,3.2,0,0,0,1-2.22V9.49L31.6,8V18.16a2.82,2.82,0,0,0-2.19,2.74v3.86a.6.6,0,0,0,.61.6H34.4a.6.6,0,0,0,.6-.6V20.9a2.82,2.82,0,0,0-2.19-2.75V7.1h0a.61.61,0,0,0-.37-.61L16.64,0a.67.67,0,0,0-.24,0Z"/></g></g></svg>