<svg xmlns="http://www.w3.org/2000/svg" viewBox="0 0 51 51.64"><defs><style>.cls-1{fill:#8cc542;}</style></defs><g id="Layer_2" data-name="Layer 2"><g id="Layer_1-2" data-name="Layer 1"><path class="cls-1" d="M48.41,6.15l-5,4.7,4.27,14.26-2.12,2.12.45.45-.44-.4L38.85,15.1l-5.53,5.1a4,4,0,0,1-1.1.79l-.47.23,1.3,5L32,27.32l-2.56-5.05-.62-.62-5.05-2.56L24.82,18l4.94,1.28.23-.47a4.1,4.1,0,0,1,.83-1.15l5.06-5.49L23.83,5.55,26,3.42,40.13,7.66l4.72-5a2.77,2.77,0,0,1,2-.83,2.41,2.41,0,0,1,1.72.7A2.6,2.6,0,0,1,48.41,6.15ZM38.65,29.92c-.09,1-1.67,2-3.21,2.85-2,1.17-4.35,2.5-4.28,4.76a4.75,4.75,0,0,1-1.77.16c-1.19,0-2.55,0-3.35.67s-2.67-.28-3.28-.76a2.47,2.47,0,0,0-1.21-.35,3.56,3.56,0,0,1-1-.22.38.38,0,0,1,0-.18c.28-.76.8-.86,2-1,.32,0,.66-.08,1-.15,1.23-.24,3.7-1.43,3.87-2.6a1,1,0,0,0-.54-1,9.62,9.62,0,0,1-4.75-6.73L22.11,25h0c0-.12,0-.25,0-.37.07-1.19.19-3-1.12-3.39A7.78,7.78,0,0,0,19.57,21a6.34,6.34,0,0,1-2.22-.56c-.88-.39-.89-.63-.62-2.33.07-.42.14-.89.2-1.43A4.91,4.91,0,0,1,18.64,13c.52,0,1-.07,1.58-.07a18.59,18.59,0,0,1,10.32,3.15l-.64.7a5.68,5.68,0,0,0-.81,1l-4.66-1.21-1.75,1.75a1.13,1.13,0,0,0,0,1.62l.07.07L28,22.73l.33.33L31,28.33l.07.07a1.13,1.13,0,0,0,1.62,0l1.75-1.75L33.23,21.9a5.44,5.44,0,0,0,1-.76l.82-.76c.29.39.58.79.84,1.21A18.09,18.09,0,0,1,38.65,29.92Zm-.41,5.58a18.42,18.42,0,0,1-22.1,13.89,18.59,18.59,0,0,1-5.47-2.21A15.52,15.52,0,0,0,13.55,44a4,4,0,0,0,.2-2.17c0-.18,0-.43,0-.46.15-.66-1.27-3-1.67-3.61a6.29,6.29,0,0,1,.36-1.22,10.86,10.86,0,0,0,.39-1.23c.26-1.12-.93-2-2-2.77a8.49,8.49,0,0,1-.9-.72c-.79-.83-1.66-.08-2,.24-.14.12-.41.35-.51.35-.39-.28-.32-.95-.17-1.94,0-.26.08-.53.11-.78.14-1.37-2.51-2.27-5-2.8A18.35,18.35,0,0,1,16.71,13.27a7.13,7.13,0,0,0-1,3.21c-.06.51-.13,1-.19,1.37-.26,1.61-.46,2.89,1.37,3.7a7.89,7.89,0,0,0,2.6.67,5.62,5.62,0,0,1,1.19.21c.16.05.32.45.22,2.09a2.65,2.65,0,0,0,.07,1.14A10.76,10.76,0,0,0,26.06,33a6.48,6.48,0,0,1-2.71,1.37c-.32.06-.63.1-.93.14-1.15.14-2.46.31-3,1.84a1.39,1.39,0,0,0,.06,1.26,2.49,2.49,0,0,0,1.93.85,4.6,4.6,0,0,1,.59.1,5.87,5.87,0,0,0,3.27,1.3,2.46,2.46,0,0,0,1.65-.59A4.55,4.55,0,0,1,29.4,39c1.15,0,2.14,0,2.69-.54a1.3,1.3,0,0,0,.36-.94c0-1.49,1.84-2.57,3.65-3.61a16.62,16.62,0,0,0,2.61-1.72A21.27,21.27,0,0,1,38.24,35.5ZM9.49,46.4a18.54,18.54,0,0,1-4.87-5.18A18.26,18.26,0,0,1,2.09,28.1c1.92.43,3.68,1.08,4,1.48,0,.21-.06.43-.09.65-.16,1.07-.37,2.4.68,3.17.87.63,1.67,0,2.1-.42l.33-.27a9.37,9.37,0,0,0,1,.81c.43.31,1.56,1.15,1.49,1.46a8.92,8.92,0,0,1-.35,1.08c-.36,1-.67,1.88-.16,2.43a14.15,14.15,0,0,1,1.41,2.68,6.34,6.34,0,0,0,0,.7,5.56,5.56,0,0,1,0,1.43C12,44.06,10.09,46.31,9.49,46.4Zm.12.09-.12-.09a.29.29,0,0,1,.15,0ZM49.43,1.57A3.7,3.7,0,0,0,46.8.5a4.05,4.05,0,0,0-2.88,1.22L39.73,6.2,25.59,2,22.93,4.63a1.3,1.3,0,0,0-.38.93,1.34,1.34,0,0,0,.38.93l.06.06,10.84,6-2.42,2.62a19.8,19.8,0,0,0-11.19-3.48,19.74,19.74,0,0,0-4.37,39,19.86,19.86,0,0,0,4.4.5A19.75,19.75,0,0,0,39.92,29.9v-.06h0a19.73,19.73,0,0,0-3-8.94c-.31-.49-.64-.95-1-1.4l2.54-2.34,6,10.84,0,.08.06.06a1.34,1.34,0,0,0,1.85,0l2.66-2.66L44.82,11.25l4.46-4.17A3.89,3.89,0,0,0,49.43,1.57Z"/><path class="cls-1" d="M48.17,2.83a2.11,2.11,0,0,1-.11,3l.71.71a3.1,3.1,0,0,0,.11-4.37ZM46.8,2.28a1.93,1.93,0,0,1,1.37.55l.71-.71a2.92,2.92,0,0,0-2.08-.85ZM45.19,3a2.28,2.28,0,0,1,1.61-.68v-1a3.26,3.26,0,0,0-2.32,1Zm-4.7,5,4.72-5-.73-.68-4.72,5ZM25.81,3.89,40,8.13l.29-1L26.1,2.93Zm-1.63,2,2.13-2.13-.71-.71L23.47,5.18Zm11.94,5.85-12-6.63L23.59,6l12.05,6.63ZM31.19,18l5.06-5.49-.74-.68-5.06,5.49Zm-.75,1a3.63,3.63,0,0,1,.73-1l-.71-.71a5,5,0,0,0-.93,1.29Zm-.23.47.23-.47-.9-.43-.23.47Zm-5.51-1,4.94,1.28.25-1L25,17.53Zm-.61.95,1.08-1.08-.71-.71-1.08,1.08ZM29,21.21,24,18.65l-.45.89,5.05,2.56Zm.74.71-.62-.62-.71.71.62.62Zm2.66,5.18-2.56-5.05L29,22.5l2.56,5.05Zm.28-1.21L31.62,27l.71.71,1.08-1.08Zm-1.43-4.54,1.3,5,1-.25-1.3-5Zm.73-.81-.47.23.44.9.47-.23Zm1-.7a3.63,3.63,0,0,1-1,.7l.44.9a4.59,4.59,0,0,0,1.23-.89Zm5.54-5.11L33,19.83l.68.74,5.53-5.1ZM46,27l-6.7-12.18-.88.48,6.7,12.18Zm.34.27-.44-.4-.68.74.44.4Zm-1.15.27.45.45.71-.71-.45-.45Zm2.12-2.82-2.12,2.12.71.71L48,25.47ZM42.91,11l4.27,14.26,1-.29L43.87,10.7Zm5.16-5.21-5,4.7.68.73,5-4.7ZM35.44,21.84A17.76,17.76,0,0,1,38.14,30l1-.08a18.92,18.92,0,0,0-2.85-8.57Zm-.81-1.18c.29.38.56.77.82,1.17l.85-.53c-.27-.43-.56-.84-.86-1.24Zm-.09.83.82-.76L34.68,20l-.82.76Zm-1,.82a6.5,6.5,0,0,0,1.05-.83l-.71-.71a4.89,4.89,0,0,1-.87.69ZM35,26.51l-1.23-4.75-1,.25L34,26.76Zm-1.88,2.22L34.83,27l-.71-.71L32.37,28Zm-1.16.49a1.63,1.63,0,0,0,1.16-.48L32.37,28a.64.64,0,0,1-.46.19v1Zm-1.17-.49a1.64,1.64,0,0,0,1.16.48v-1a.68.68,0,0,1-.46-.19Zm-.07-.07.07.07.71-.71L31.39,28Zm-2.76-5.4,2.67,5.27.89-.45-2.67-5.27Zm-.24-.2.33.33.71-.71-.33-.33Zm-5.15-2.58,5.27,2.67.45-.89L23,19.59Zm-.2-.17.07.07.71-.71L23,19.6Zm-.48-1.16a1.63,1.63,0,0,0,.48,1.16L23,19.6a.64.64,0,0,1-.19-.46h-1ZM22.33,18a1.63,1.63,0,0,0-.48,1.16h1a.68.68,0,0,1,.19-.46Zm1.75-1.74L22.33,18l.71.71L24.79,17Zm5.14,1.07L24.56,16.1l-.25,1L29,18.28Zm.33-.89a6.22,6.22,0,0,0-.88,1.11l.85.52a5.33,5.33,0,0,1,.73-.93Zm.63-.68-.64.7.74.68.64-.7Zm-5.95-1.85a18.06,18.06,0,0,1,6,2.6l.56-.83a19.1,19.1,0,0,0-6.37-2.75Zm-4-.45a18.13,18.13,0,0,1,4,.45l.22-1a18.86,18.86,0,0,0-4.23-.48Zm-1.54.06q.76-.06,1.53-.06v-1c-.54,0-1.08,0-1.62.07Zm-1.25,3.18a5.67,5.67,0,0,1,.62-2.22A4.18,4.18,0,0,1,19,13.37l-.67-.74A5.07,5.07,0,0,0,17.19,14a6.72,6.72,0,0,0-.75,2.6Zm-.2,1.46c.07-.42.14-.9.2-1.46l-1-.11c-.06.53-.13,1-.2,1.41Zm.33,1.8c-.42-.19-.44-.26-.46-.34a1.58,1.58,0,0,1,0-.47c0-.25.07-.56.14-1l-1-.16c-.07.42-.12.78-.14,1.06a2.56,2.56,0,0,0,0,.79,1.52,1.52,0,0,0,1,1Zm2.07.52a5.79,5.79,0,0,1-2.06-.52l-.41.91a6.81,6.81,0,0,0,2.37.6Zm1.52.27a7.87,7.87,0,0,0-1.52-.28l-.1,1a6.68,6.68,0,0,1,1.33.24Zm1.48,3.9a8.5,8.5,0,0,0-.05-2.12,2.13,2.13,0,0,0-1.43-1.78l-.29,1c.4.12.63.45.74,1a8.23,8.23,0,0,1,0,1.86Zm0,.36c0-.11,0-.24,0-.36l-1-.06c0,.12,0,.26,0,.38Zm-.29-.48h0l-.4.92h0Zm.35.76,0-.36-1,.12,0,.36Zm4.48,6.35a8.5,8.5,0,0,1-3.7-3.94,9.28,9.28,0,0,1-.79-2.42l-1,.13a10.15,10.15,0,0,0,5,7.11Zm.8,1.53a1.44,1.44,0,0,0-.8-1.52l-.47.88A.45.45,0,0,1,27,33Zm-4.27,3a8.56,8.56,0,0,0,2.5-1,5.51,5.51,0,0,0,1.13-.86A2.08,2.08,0,0,0,28,33.16L27,33a1.23,1.23,0,0,1-.37.59,5,5,0,0,1-.94.71,7.65,7.65,0,0,1-2.17.89Zm-1.05.15c.32,0,.67-.08,1.05-.16l-.19-1-1,.15ZM21.07,37a.68.68,0,0,1,.38-.45,4.49,4.49,0,0,1,1.18-.23l-.12-1a5.66,5.66,0,0,0-1.46.31,1.64,1.64,0,0,0-.92,1Zm0,0h0v0l-.93-.35a1.4,1.4,0,0,0-.06.24.38.38,0,0,0,0,.1v.06h0v0Zm.56-.27-.54-.08-.22,0h0l.07,0-.71.7a.63.63,0,0,0,.21.14l.16.06.32.08.59.09Zm1.45.46a3,3,0,0,0-1.45-.46l-.13,1a2.1,2.1,0,0,1,1,.25Zm2.64.77c-.22.19-.64.22-1.25,0a6,6,0,0,1-1.4-.77l-.61.79a6.56,6.56,0,0,0,1.67.93,2.19,2.19,0,0,0,2.24-.19Zm3.68-.8a12.3,12.3,0,0,0-1.9.07A3.36,3.36,0,0,0,25.7,38l.66.75a2.42,2.42,0,0,1,1.27-.49,11.08,11.08,0,0,1,1.75-.06Zm1.42,0c.05,0,.09-.06.07,0l-.09,0-.4,0c-.33,0-.71,0-1,0v1c.29,0,.71,0,1.07,0l.52-.05a1.05,1.05,0,0,0,.24-.06.8.8,0,0,0,.28-.17Zm4.38-4.83a16.51,16.51,0,0,0-3,2,4.1,4.1,0,0,0-1.51,3.17l1,0a3.07,3.07,0,0,1,1.19-2.4,16,16,0,0,1,2.84-1.91Zm3-2.46c0,.3-.28.67-.87,1.13a19.6,19.6,0,0,1-2.09,1.32l.5.87a19,19,0,0,0,2.21-1.4A2.81,2.81,0,0,0,39.15,30Zm0,2.26a18.11,18.11,0,0,1-.44,3.26l1,.22a19.21,19.21,0,0,0,.46-3.44Zm-1.87,2.18A16.72,16.72,0,0,0,39,32.53l-.66-.75a15.4,15.4,0,0,1-2.53,1.66Zm-3.4,3.16a2.14,2.14,0,0,1,1-1.58,17.34,17.34,0,0,1,2.45-1.59l-.5-.87a18.07,18.07,0,0,0-2.59,1.69,3.1,3.1,0,0,0-1.31,2.37Zm-.5,1.3a1.79,1.79,0,0,0,.5-1.3l-1,0a.73.73,0,0,1-.21.57Zm-3.05.69A10.94,10.94,0,0,0,31,39.4a2.34,2.34,0,0,0,1.41-.63l-.71-.7a1.43,1.43,0,0,1-.84.34,11.21,11.21,0,0,1-1.49.05Zm-2.15.23a.58.58,0,0,1,.25-.11,3,3,0,0,1,.53-.09c.42,0,.91,0,1.37,0v-1c-.45,0-1,0-1.48,0a4,4,0,0,0-.71.12,1.68,1.68,0,0,0-.64.32Zm-2,.71a2.9,2.9,0,0,0,2-.72l-.66-.75a2,2,0,0,1-1.32.47v1ZM21.67,39a6.32,6.32,0,0,0,3.57,1.41v-1a5.4,5.4,0,0,1-3-1.19Zm-.35,0,.34,0,.13,0h0l.37-.93a1.32,1.32,0,0,0-.18,0l-.17,0L21.44,38ZM19,37.92a2.08,2.08,0,0,0,1.12.85,5.67,5.67,0,0,0,1.17.24l.13-1a5.49,5.49,0,0,1-1-.19,1,1,0,0,1-.59-.42Zm-.1-1.69a1.89,1.89,0,0,0,.1,1.69l.86-.52a.91.91,0,0,1,0-.83Zm3.42-2.17a6.22,6.22,0,0,0-1.88.44,2.86,2.86,0,0,0-1.54,1.72l.94.34a1.93,1.93,0,0,1,1-1.16A5.64,5.64,0,0,1,22.47,35Zm.9-.13c-.3.06-.6.09-.9.13l.12,1c.3,0,.63-.08,1-.14Zm2.45-1.24a4.83,4.83,0,0,1-1,.69,5.66,5.66,0,0,1-1.43.55l.19,1a6.22,6.22,0,0,0,1.71-.65,6.37,6.37,0,0,0,1.25-.86Zm-5.27-6.94a11.31,11.31,0,0,0,5.37,7.74l.49-.87a10.32,10.32,0,0,1-4.88-7Zm-.07-1.26c0,.24,0,.48,0,.7a1.82,1.82,0,0,0,.13.68l.91-.41a1,1,0,0,1-.05-.3c0-.16,0-.36,0-.61Zm.13-1.57a.3.3,0,0,1-.14-.08l0-.05a.06.06,0,0,1,0,0,1.06,1.06,0,0,1,0,.14,7.75,7.75,0,0,1,0,1.53l1,.06a8.54,8.54,0,0,0,0-1.75,1.6,1.6,0,0,0-.14-.48.72.72,0,0,0-.41-.37Zm-1.09-.19a5.37,5.37,0,0,1,1.1.19l.29-1a7.23,7.23,0,0,0-1.28-.23ZM16.64,22a8.36,8.36,0,0,0,2.75.71l.1-1A7,7,0,0,1,17,21.12ZM15,17.78a6.4,6.4,0,0,0-.09,2.34A2.73,2.73,0,0,0,16.65,22l.41-.91c-.8-.36-1.08-.77-1.18-1.21a5.46,5.46,0,0,1,.1-2Zm.19-1.35c-.06.5-.13.94-.19,1.35l1,.16c.06-.4.14-.87.2-1.4ZM16.29,13a7.49,7.49,0,0,0-1.11,3.43l1,.11a6.56,6.56,0,0,1,.95-3ZM2.85,27a17.85,17.85,0,0,1,14-13.21l-.19-1a18.83,18.83,0,0,0-14.74,14Zm5,2.73a1.66,1.66,0,0,0-.51-1.33A4.33,4.33,0,0,0,6,27.49a16.31,16.31,0,0,0-3.56-1.12l-.21,1a15.45,15.45,0,0,1,3.34,1,3.31,3.31,0,0,1,1,.67.68.68,0,0,1,.24.55Zm-.11.81c0-.26.08-.54.11-.81l-1-.1c0,.24-.06.49-.1.75Zm0,1.46s-.07,0-.08-.32a7.43,7.43,0,0,1,.11-1.14l-1-.15a7.36,7.36,0,0,0-.12,1.33,1.33,1.33,0,0,0,.49,1.09Zm-.11-.33-.24.2-.08.06h0a.56.56,0,0,1,.13,0l0,1a.76.76,0,0,0,.34-.1l.19-.13.3-.24Zm2.72-.2a1.63,1.63,0,0,0-.86-.5,1.67,1.67,0,0,0-.84.06,3.15,3.15,0,0,0-1,.65l.65.76a2.36,2.36,0,0,1,.7-.46.58.58,0,0,1,.31,0,.69.69,0,0,1,.34.21Zm.83.66a7.2,7.2,0,0,1-.83-.67l-.72.69a9.45,9.45,0,0,0,1,.78Zm2.17,3.29a2.19,2.19,0,0,0-.61-2,9.73,9.73,0,0,0-1.56-1.33l-.59.81a8.41,8.41,0,0,1,1.39,1.18,1.2,1.2,0,0,1,.39,1.08Zm-.41,1.28a12.06,12.06,0,0,0,.41-1.29l-1-.22a11,11,0,0,1-.37,1.17Zm-.33,1.07v0a.58.58,0,0,1,0-.1l.08-.29c.07-.22.15-.45.22-.64l-.94-.34c-.07.19-.16.44-.23.68a2.52,2.52,0,0,0-.15.69Zm1.67,3.7a1.34,1.34,0,0,0,0-.53,4.19,4.19,0,0,0-.15-.52c-.13-.35-.32-.75-.51-1.14a15.81,15.81,0,0,0-1.08-1.83l-.81.58a15.69,15.69,0,0,1,1,1.7,9.42,9.42,0,0,1,.46,1,3.39,3.39,0,0,1,.11.37c0,.1,0,.13,0,.11Zm0,.32c0-.09,0-.2,0-.28s0-.08,0-.11v0h-1c0,.06,0,.33,0,.49ZM14,44.21a2.61,2.61,0,0,0,.3-1.14,11.77,11.77,0,0,0,0-1.31l-1,.06a10.1,10.1,0,0,1,0,1.19,1.62,1.62,0,0,1-.16.69Zm-3,3.37a11.67,11.67,0,0,0,1.95-2A16.1,16.1,0,0,0,14,44.21l-.86-.51c-.06.1-.44.64-1,1.29a10.77,10.77,0,0,1-1.78,1.79Zm5.29,1.32a17.86,17.86,0,0,1-5.32-2.15l-.52.86A19,19,0,0,0,16,49.88Zm4,.46a18.13,18.13,0,0,1-4-.45l-.22,1a18.86,18.86,0,0,0,4.23.48Zm17.49-14a17.84,17.84,0,0,1-17.49,14v1A18.87,18.87,0,0,0,38.73,35.61ZM12,43.05a14.36,14.36,0,0,1-1.37,1.72,8.29,8.29,0,0,1-.85.84,3.67,3.67,0,0,1-.32.25c-.1.06-.12.06-.08,0l.15,1a1.39,1.39,0,0,0,.48-.2,3.82,3.82,0,0,0,.43-.33,11.41,11.41,0,0,0,.93-.92,14.68,14.68,0,0,0,1.49-1.88Zm0-1.14c0,.18,0,.48,0,.75s0,.26,0,.35,0,.12,0,.08l.9.44a1.37,1.37,0,0,0,.1-.44c0-.14,0-.29,0-.44s0-.62,0-.8Zm0-.78a5.4,5.4,0,0,0,0,.78l1-.07a5.28,5.28,0,0,1,0-.62Zm-1.28-2.29h0l0,0,.06.09.17.27c.13.22.28.49.43.77s.29.56.4.8a4,4,0,0,1,.21.5l1-.27a4.81,4.81,0,0,0-.27-.65c-.12-.26-.27-.56-.42-.85s-.31-.58-.45-.81a3.15,3.15,0,0,0-.39-.56Zm.06-2.93a7.14,7.14,0,0,0-.43,1.49,1.65,1.65,0,0,0,.38,1.45l.73-.69c-.11-.11-.16-.28-.12-.62a7.78,7.78,0,0,1,.38-1.29Zm.33-1a9.08,9.08,0,0,1-.33,1l.94.34A11.44,11.44,0,0,0,12,35.11Zm-1.3-.94c.21.16.59.43.9.7A4.14,4.14,0,0,1,11,35l0,0a0,0,0,0,1,0,0,.1.1,0,0,1,0,0,.32.32,0,0,1,0-.14l1,.22a.7.7,0,0,0-.06-.46,1.92,1.92,0,0,0-.18-.28,4.17,4.17,0,0,0-.47-.47c-.35-.3-.75-.6-1-.76Zm-1.06-.86a10.68,10.68,0,0,0,1.06.86l.59-.8a9.21,9.21,0,0,1-.95-.76Zm.34.29.28-.23-.55-.83a3.35,3.35,0,0,0-.38.31Zm-2.71.44A1.72,1.72,0,0,0,8,34a3.66,3.66,0,0,0,1-.67l-.65-.76a2.79,2.79,0,0,1-.73.5.71.71,0,0,1-.74-.1Zm-.89-3.64A7.13,7.13,0,0,0,5.33,32a2.47,2.47,0,0,0,1,1.82L6.92,33a1.48,1.48,0,0,1-.59-1.12,6.6,6.6,0,0,1,.11-1.57Zm.09-.64q0,.3-.09.63l1,.15c0-.22.07-.45.09-.68ZM2,28.59a21.38,21.38,0,0,1,2.53.73,7.48,7.48,0,0,1,.84.36l.23.14c.06,0,.06.06,0,0l.83-.56A1.09,1.09,0,0,0,6.17,29a2.33,2.33,0,0,0-.35-.22,8.27,8.27,0,0,0-1-.42,20.51,20.51,0,0,0-2.66-.77ZM5,41A17.86,17.86,0,0,1,2.57,28.2l-1-.18A18.88,18.88,0,0,0,4.19,41.5Zm4.74,5a17.93,17.93,0,0,1-4.73-5l-.85.53a19,19,0,0,0,5,5.32Zm-.57.19,0,0,.85.52,0,0Zm.33.71H9.43l-.06,0L9.89,46a.72.72,0,0,0-.46-.11Zm.35-.82L9.77,46l-.58.81.13.09ZM49.65,7.42a4.39,4.39,0,0,0,.13-6.2l-.71.71a3.38,3.38,0,0,1-.13,4.78ZM45.18,11.6l4.46-4.17L49,6.7,44.5,10.87Zm4.4,13.73L45.32,11.1l-1,.29,4.26,14.23Zm-2.79,3.16,2.66-2.66-.71-.71-2.66,2.66Zm-2.55,0a1.84,1.84,0,0,0,2.56,0l-.71-.71a.85.85,0,0,1-1.15,0Zm-.07-.06.06.06.7-.71-.06-.06ZM44,28.23l0,.08.87-.49,0-.08Zm-6-10.84,6,10.84.88-.48L39,16.91Zm-1.77,2.47,2.54-2.34-.68-.74-2.54,2.34Zm1.06.76c-.32-.5-.66-1-1-1.43l-.8.6a15.78,15.78,0,0,1,1,1.36Zm3.05,9.17a20.1,20.1,0,0,0-3.05-9.17l-.85.53a19.18,19.18,0,0,1,2.9,8.72Zm-.49-.46h0v1h0Zm.5.58h0v-.08h-1v0h0v.06Zm-.46,6a19.92,19.92,0,0,0,.45-6l-1,.08A19.56,19.56,0,0,1,39,35.67ZM20.26,51.63A20.13,20.13,0,0,0,40,35.89l-1-.22a19.14,19.14,0,0,1-18.74,15v1Zm-4.51-.5a20.19,20.19,0,0,0,4.51.51v-1A19.46,19.46,0,0,1,16,50.16Zm-12.64-9a20.14,20.14,0,0,0,12.64,9l.22-1A19.08,19.08,0,0,1,4,41.64ZM.51,26.9a20.1,20.1,0,0,0,2.6,15.27L4,41.64A19.09,19.09,0,0,1,1.49,27.13ZM20.23,11.15A20.13,20.13,0,0,0,.52,26.9l1,.22a19.14,19.14,0,0,1,18.74-15Zm4.51.51a20.19,20.19,0,0,0-4.51-.51v1a19.46,19.46,0,0,1,4.29.48Zm7,3.06a20.25,20.25,0,0,0-7-3.05l-.22,1a19.21,19.21,0,0,1,6.62,2.9Zm1.77-2.55-2.42,2.62.74.68,2.42-2.62ZM22.76,7l10.84,6,.48-.88-10.84-6Zm-.18-.15.06.06.71-.71-.06-.06Zm-.53-1.28a1.81,1.81,0,0,0,.53,1.28l.71-.71a.82.82,0,0,1-.24-.57Zm.53-1.28a1.81,1.81,0,0,0-.53,1.28h1A.76.76,0,0,1,23.29,5Zm2.66-2.66L22.58,4.27l.71.71L26,2.32ZM39.87,5.72,25.73,1.49l-.29,1L39.58,6.68Zm3.68-4.34L39.36,5.86l.73.68,4.19-4.48ZM46.8,0a4.5,4.5,0,0,0-3.23,1.37l.71.71A3.55,3.55,0,0,1,46.81,1V0Zm3,1.22A4.18,4.18,0,0,0,46.8,0V1a3.16,3.16,0,0,1,2.27.93ZM48.52,2.48l-.35.35h0Zm-3.68.13-.35-.35h0Zm-4.72,5L40,8.13l.3.09L40.49,8ZM26,3.41l.14-.48-.29-.09-.21.21ZM23.83,5.54l-.35-.35L23,5.66l.58.32Zm12.05,6.64.37.34.43-.47-.56-.31Zm-5.06,5.48.35.35h0ZM30,18.82l.45.22h0Zm-.23.47-.13.48.4.1.18-.37ZM24.82,18l.13-.48-.28-.07-.2.2Zm-1.08,1.08-.35-.35-.49.49.61.31Zm5.05,2.57.35-.35-.06-.06-.07,0Zm.62.62.45-.23,0-.07-.06-.06Zm2.56,5-.45.23.31.61.49-.49Zm1.08-1.08.35.35.2-.2-.07-.28Zm-1.3-5-.22-.45-.36.18.1.39Zm.47-.23L32,20.54h0Zm1.1-.79L33,19.83h0Zm5.53-5.1.44-.24L39,14.3l-.47.43Zm6.7,12.18-.44.24,0,.07.06.06Zm.44.4-.34.37.69-.72Zm-.45-.45-.35-.35-.35.35.35.35Zm2.12-2.12.35.35.21-.21L48.13,25ZM43.39,10.85l-.34-.36-.23.21.09.3Zm5-4.7.34.37h0ZM35.87,21.57l-.42.27h0ZM35,20.36l.4-.3-.33-.44-.41.37Zm-.82.76-.34-.37h0Zm-1,.76L33,21.46l-.31.19.09.35Zm1.23,4.75.35.35.2-.2L35,26.5Zm-1.75,1.75L32.38,28h0Zm-1.62,0-.35.35h0ZM31,28.31l-.45.23,0,.07.06.06ZM28.36,23l.45-.23,0-.07-.06-.06ZM28,22.7l.35-.35-.06-.06-.07,0ZM22.76,20l-.35.35.06.06.07,0ZM22.69,20l.35-.35h0Zm-.34-.81h0Zm.34-.81.35.35h0Zm1.74-1.75.13-.48L24.28,16l-.2.2Zm4.66,1.21-.13.48.36.09.19-.31Zm.81-1,.35.35h0Zm.64-.7.37.34L31.3,16l-.48-.33Zm-6.2-2.68-.11.49ZM18.65,13l0-.5h-.17l-.13.11Zm-1.71,3.63.5.06Zm-.2,1.43.49.08h0Zm.63,2.33.2-.46h0Zm2.21.57,0,.5h0Zm1.43.25.15-.48h0Zm1.13,3.39.5,0h0Zm0,.37-.5,0,0,.35.32.14Zm0,0,.5-.06,0-.28-.26-.11Zm.05.36-.5.06h0Zm4.75,6.74.23-.44h0Zm.54,1,.49.07Zm-3.88,2.6.09.49h0Zm-1,.15.06.5h0Zm-2,1,.47.17h0Zm0,.18h-.5v.21l.14.15Zm1,.23-.07.5h0Zm1.2.35-.31.39h0Zm3.28.76.33.38h0Zm3.35-.68v-.5h0Zm1.77-.15.35.36.16-.15v-.22Zm4.28-4.76-.25-.43h0Zm3.21-2.84.5,0v-.08Zm0,2.23.5,0L39.24,31l-.88.77Zm-2.61,1.72.25.43h0Zm-3.66,3.61h0Zm-.35.94-.36-.35h0ZM29.38,39v.5h0Zm-2.49.35.33.38h0ZM22,38.6l.31-.39-.06,0-.07,0Zm-.59-.09.07-.5h0Zm-1.93-.85-.43.26h0ZM19.4,36.4l.47.17h0Zm3-1.84.06.5h0Zm.94-.14-.09-.49h0Zm2.7-1.37.35.36.47-.46-.58-.33Zm-5.12-7.39.49-.08v-.06l0-.06Zm-.07-1.14.5,0Zm-.22-2.08.15-.48h0Zm-1.19-.21.05-.5h0Zm-2.6-.67.2-.46h0Zm-1.37-3.7.49.08h0Zm.19-1.37-.5-.06h0Zm1-3.22.42.28.65-1-1.16.22ZM2.36,26.85l-.48-.12-.13.5.51.11Zm5,2.8.5.05h0Zm-.11.79.49.08h0Zm.17,1.93-.29.4.14.1H7.4ZM7.89,32l.33.38h0Zm2-.24-.36.34h0Zm.9.72-.3.4h0Zm2,2.78-.49-.11h0Zm-.39,1.23.47.17h0Zm-.36,1.21h-.5v.17l.1.14Zm1.68,3.61-.49-.11v.11Zm0,.46.5,0ZM13.55,44l.43.26h0Zm-2.88,3.22-.3-.4-.6.44.64.39Zm5.47,2.21.11-.49h0ZM38.24,35.5l-.49-.11ZM12.45,43.31l.43.26v0Zm0-1.43-.5,0Zm0-.7.5,0v-.09l0-.09ZM11.05,38.5l.37-.34h0Zm.16-2.42.47.17h0ZM11.55,35l-.49-.11h0Zm-1.48-1.45-.3.4h0Zm-1-.81.35-.35-.29-.29-.34.22ZM8.73,33l-.33-.38h0Zm-2.1.42-.29.4h0ZM6,30.24l-.49-.08h0ZM6,29.59l.5.05,0-.18-.1-.15ZM2.09,28.1l.11-.49-.51-.11L1.6,28ZM4.62,41.22,5,41Zm5,5.23.43.26.26-.43L9.89,46Zm-.14-.05-.29.41h0Zm.12.09-.29.41.44.3.28-.45ZM49.3,7.07l.34.37h0Zm-4.46,4.17-.34-.37-.23.21.09.3ZM49.1,25.47l.35.35.21-.21-.09-.29Zm-2.66,2.66.35.35h0Zm-1.85,0,.35-.35h0Zm-.07-.06-.44.24,0,.06,0,.05Zm0-.08-.44.24h0Zm-6-10.84.44-.24-.31-.56-.47.43ZM36,19.49l-.34-.37-.33.31.28.36Zm1,1.4.42-.27h0Zm3,8.94-.5,0,0,.46h.46Zm0,0h.5v-.5h-.5Zm0,.06-.5,0v.06Zm-.44,5.89.49.11ZM15.86,50.64l.11-.49ZM3.54,41.9l-.42.27ZM1,27,.51,26.9ZM24.63,12.15l.11-.49h0Zm6.79,3-.28.41.36.25.29-.32Zm2.41-2.62.37.34.43-.47-.56-.31ZM23,6.54l-.35.35.05.05.06,0Zm-.07-.06.35-.35h0Zm0-1.86.35.35h0ZM25.59,2l.14-.48-.29-.09-.21.21ZM39.73,6.2l-.14.48.3.09.21-.23Zm4.19-4.48-.35-.35h0Zm5.51-.15-.35.35h0Z"/></g></g></svg>