<?xml version="1.0" encoding="utf-8"?>
<!-- Generator: Adobe Illustrator 16.0.0, SVG Export Plug-In . SVG Version: 6.00 Build 0)  -->
<!DOCTYPE svg PUBLIC "-//W3C//DTD SVG 1.1 Tiny//EN" "http://www.w3.org/Graphics/SVG/1.1/DTD/svg11-tiny.dtd">
<svg version="1.1" baseProfile="tiny" id="Layer_1" xmlns="http://www.w3.org/2000/svg" xmlns:xlink="http://www.w3.org/1999/xlink"
	 x="0px" y="0px" width="280.893px" height="51.736px" viewBox="0 0 280.893 51.736" xml:space="preserve">
<path fill="#FFFFFF" d="M60.93,10.189c4.819,0,7.294,2.801,7.294,7.701v0.96h-4.689v-1.27c0-2.182-0.896-3.028-2.475-3.028
	c-1.58,0-2.475,0.83-2.475,3.028c0,6.301,9.671,7.489,9.671,16.248c0,4.9-2.523,7.701-7.391,7.701c-4.868,0-7.375-2.801-7.375-7.701
	V31.94h4.689v2.198c0,2.182,0.993,2.979,2.572,2.979s2.572-0.781,2.572-2.979c0-6.301-9.687-7.489-9.687-16.248
	C53.636,13.005,56.111,10.189,60.93,10.189z"/>
<polygon fill="#FFFFFF" points="70.748,10.547 86.052,10.547 86.052,14.926 80.874,14.926 80.874,41.204 75.925,41.204 
	75.925,14.926 70.748,14.926 "/>
<path fill="#FFFFFF" d="M94.029,10.547v23.656c0,2.182,0.993,2.979,2.572,2.979s2.572-0.781,2.572-2.979V10.547h4.673v23.347
	c0,4.9-2.523,7.7-7.375,7.7c-4.868,0-7.391-2.8-7.391-7.7V10.547H94.029z"/>
<path fill="#FFFFFF" d="M118.564,33.845c0,2.182-0.944,2.979-2.523,2.979h-2.784V14.926h2.784c1.579,0,2.523,0.781,2.523,2.979
	V33.845z M116.123,10.547h-7.832v30.656h7.832c4.949,0,7.391-2.67,7.391-7.57v-15.5C123.514,13.217,121.088,10.547,116.123,10.547z"
	/>
<polygon fill="#FFFFFF" points="132.696,23.458 139.485,23.458 139.485,27.854 132.696,27.854 132.696,36.825 141.244,36.825 
	141.244,41.204 127.73,41.204 127.73,10.547 141.244,10.547 141.244,14.926 132.696,14.926 "/>
<polygon fill="#FFFFFF" points="191.861,41.204 186.912,41.204 186.912,10.547 191.861,10.547 191.861,23.686 197.494,23.686 
	197.494,10.547 202.525,10.547 202.525,41.204 197.494,41.204 197.494,28.065 191.861,28.065 "/>
<path fill="#FFFFFF" d="M211.936,10.547v23.656c0,2.182,0.993,2.979,2.572,2.979c1.58,0,2.572-0.797,2.572-2.979V10.547h4.689
	v23.347c0,4.9-2.523,7.7-7.392,7.7s-7.376-2.8-7.376-7.7V10.547H211.936z"/>
<path fill="#FFFFFF" d="M236.553,33.796c0,2.279-0.896,3.028-2.572,3.028h-2.833v-9.41h2.214c2.247,0,3.191,0.879,3.191,3.729
	V33.796z M231.147,14.927h2.394c1.758,0,2.523,0.96,2.523,3.158v1.709c0,2.459-1.123,3.24-2.98,3.24h-1.937V14.927z M237.822,24.875
	c2.215-1.01,3.191-3.028,3.191-6.171v-1.091c0-4.721-2.215-7.05-7.343-7.05h-7.474V41.22h7.783c4.949,0,7.521-2.54,7.521-7.277
	v-2.491C241.502,28.196,240.477,25.868,237.822,24.875z"/>
<rect x="245.328" y="36.564" fill="#FFFFFF" width="4.77" height="4.64"/>
<rect x="254.803" y="10.547" fill="#FFFFFF" width="4.95" height="30.656"/>
<polygon fill="#FFFFFF" points="268.87,18.997 268.87,41.204 264.409,41.204 264.409,10.547 270.629,10.547 275.725,28.895 
	275.725,10.547 280.137,10.547 280.137,41.204 275.041,41.204 "/>
<polygon fill="#FFFFFF" points="149.808,18.997 149.808,41.204 145.347,41.204 145.347,10.547 151.55,10.547 156.646,28.895 
	156.646,10.547 161.058,10.547 161.058,41.204 155.962,41.204 "/>
<polygon fill="#FFFFFF" points="164.249,10.547 179.553,10.547 179.553,14.926 174.375,14.926 174.375,41.204 169.426,41.204 
	169.426,14.926 164.249,14.926 "/>
<path fill-rule="evenodd" fill="#8DC443" d="M12.739,26.925l5.633-6.707l-7.098-5.666c0.244-0.439,0.521-0.863,0.863-1.271
	c2.947-3.679,8.157-4.396,11.641-1.611l12.439,9.932v-3.208C36.199,8.625,28.238,0.713,18.437,0.73
	C8.994,0.762,1.326,8.105,0.756,17.352L12.739,26.925z"/>
<path fill-rule="evenodd" fill="#8DC443" d="M25.128,25.639l-5.633,6.708l6.252,4.998c-0.244,0.439-0.521,0.863-0.863,1.27
	c-2.947,3.663-8.173,4.396-11.641,1.612L0.756,30.23v3.094c0.016,9.769,7.978,17.681,17.779,17.665
	c9.394-0.017,17.046-7.294,17.665-16.493L25.128,25.639z"/>
</svg>
