<svg xmlns="http://www.w3.org/2000/svg" viewBox="0 0 34 35.44"><defs><style>.cls-1{fill:#8cc542;}</style></defs><g id="Layer_2" data-name="Layer 2"><g id="Layer_1-2" data-name="Layer 1"><path class="cls-1" d="M32.58,4,29.16,7.24l2.9,10L30.62,18.7l.31.32-.3-.28-4.56-8.53-3.76,3.57a2.88,2.88,0,0,1-.75.56l-.32.16L22.12,18l-.74.76-1.74-3.53-.42-.44L15.79,13l.74-.76,3.36.9.16-.33a3.1,3.1,0,0,1,.56-.81l3.44-3.84-8.2-4.64L17.3,2.05l9.63,3,3.21-3.53A1.87,1.87,0,0,1,31.47.91a1.6,1.6,0,0,1,1.17.49A1.83,1.83,0,0,1,32.58,4ZM25.94,20.59c-.06.73-1.14,1.37-2.18,2-1.39.82-3,1.75-2.91,3.33a3.27,3.27,0,0,1-1.2.11,3.43,3.43,0,0,0-2.28.47c-.61.55-1.82-.2-2.23-.53a1.73,1.73,0,0,0-.82-.25,2.06,2.06,0,0,1-.68-.16.23.23,0,0,1,0-.13c.19-.53.55-.6,1.34-.7.22,0,.45-.06.69-.11.84-.17,2.52-1,2.63-1.82a.68.68,0,0,0-.37-.71,6.76,6.76,0,0,1-3.23-4.71l0-.25h0c0-.08,0-.18,0-.26.05-.83.13-2.09-.76-2.37a4.79,4.79,0,0,0-1-.18,4.29,4.29,0,0,1-1.51-.39c-.6-.27-.61-.44-.42-1.63,0-.29.1-.62.14-1a3.47,3.47,0,0,1,1.16-2.54c.35,0,.71-.05,1.07-.05a12,12,0,0,1,2.8.33,12.53,12.53,0,0,1,4.22,1.87l-.44.49a4.1,4.1,0,0,0-.55.71l-3.17-.84-1.19,1.22a.79.79,0,0,0-.23.57.81.81,0,0,0,.23.57l.05.05,3.58,1.87.23.23,1.82,3.69,0,.05a.77.77,0,0,0,.55.24.76.76,0,0,0,.55-.23L23.1,18.3,22.26,15a3.35,3.35,0,0,0,.65-.53l.56-.53c.2.27.39.55.57.85a12.88,12.88,0,0,1,1.9,5.83Zm-.28,3.91a12.56,12.56,0,0,1-12.22,10,12,12,0,0,1-2.8-.33,12.32,12.32,0,0,1-3.72-1.55,11.28,11.28,0,0,0,2-2.26A3,3,0,0,0,9,28.89c0-.13,0-.3,0-.32A6.91,6.91,0,0,0,7.86,26a4.16,4.16,0,0,1,.24-.85,6.4,6.4,0,0,0,.26-.86c.18-.79-.63-1.4-1.34-1.94a5.39,5.39,0,0,1-.61-.51c-.54-.58-1.13-.06-1.38.17s-.28.25-.35.25c-.27-.2-.22-.67-.11-1.36,0-.19,0-.37.07-.55.09-1-1.71-1.59-3.37-2A12.6,12.6,0,0,1,11,8.93a5,5,0,0,0-.7,2.25c0,.36-.09.68-.13,1-.17,1.13-.31,2,.93,2.59a5.05,5.05,0,0,0,1.77.47,4,4,0,0,1,.81.15c.11,0,.22.31.15,1.46a1.79,1.79,0,0,0,.05.8,7.57,7.57,0,0,0,3.48,5.17,4.47,4.47,0,0,1-1.84,1l-.63.1c-.78.1-1.67.22-2.05,1.29a1,1,0,0,0,0,.88,1.64,1.64,0,0,0,1.31.59,3.09,3.09,0,0,1,.4.07,4,4,0,0,0,2.22.91A1.65,1.65,0,0,0,18,27.17c.29-.27,1.07-.26,1.69-.25.78,0,1.45,0,1.83-.38a.9.9,0,0,0,.24-.66c0-1,1.25-1.8,2.48-2.53A11.32,11.32,0,0,0,26,22.14a13.38,13.38,0,0,1-.31,2.36ZM6.11,32.13A12.81,12.81,0,0,1,2.8,28.5a13.08,13.08,0,0,1-1.72-9.18,6.74,6.74,0,0,1,2.69,1l-.06.46c-.11.75-.25,1.68.46,2.22s1.14,0,1.43-.29l.23-.19a7.49,7.49,0,0,0,.69.57c.29.22,1.06.8,1,1a6.47,6.47,0,0,1-.24.76c-.25.71-.46,1.32-.11,1.7a10.27,10.27,0,0,1,1,1.87,4.44,4.44,0,0,0,0,.49,3.61,3.61,0,0,1,0,1c-.31.52-1.61,2.1-2,2.16Zm.08.06-.08-.06a.19.19,0,0,1,.1,0ZM33.27.75A2.49,2.49,0,0,0,31.48,0a2.73,2.73,0,0,0-2,.85L26.67,4,17.06,1,15.25,2.88a.91.91,0,0,0-.26.65.92.92,0,0,0,.26.65l0,0L22.66,8.4,21,10.24a13.24,13.24,0,0,0-7.61-2.43A13.43,13.43,0,0,0,.34,18.56,14.07,14.07,0,0,0,2.06,29a13.35,13.35,0,0,0,8.38,6.11,13.13,13.13,0,0,0,3,.35A13.43,13.43,0,0,0,26.5,24.69a14.36,14.36,0,0,0,.3-4.12v0h0a14.09,14.09,0,0,0-2-6.26c-.21-.34-.43-.66-.67-1l1.73-1.64,4.06,7.59,0,.06,0,0a.89.89,0,0,0,1.26,0L33,17.48l-2.9-10,3-2.92A2.76,2.76,0,0,0,33.27.75Z"/></g></g></svg>